<?xml version="1.0" encoding="UTF-8"?> <svg xmlns="http://www.w3.org/2000/svg" width="1280" height="1280" viewBox="0 0 2048 452"><path fill="#010701" d="M258 1h8l9 3 6 7 4 6v2l8 1 24 7 27 10 20 10 19 12 11 9 3 3v5l22 1 16-8 10-7 8-6 2-2h5l1 6-4 16-7 14-8 10-3 6-4 5h-2l8 14 8 19 7 18 2 4 8 3 4 1h21l16-3 8-4h4l-1 6-9 14-9 9-10 3-19 3-1 5 1 4 1 23v16l-3 18-7 27-11 24-11 19-9 11-14 17-12 12-11 9-13 12-6 5-3 9-3 10-5 1-6-5-9-16-2-4-7-1-7 5-2 14-6 10-9 9-11 8-14 7-11 2h-34l-17-4-13-7-10-9-7-11-5-12-3-13-7-2-5 4-7 13-11 14-3 2-4-9-4-13-10-8-13-9-15-13-15-15-9-12-7-10-12-21-8-17-6-18-5-30v-35l1-14-15-2-13-5-10-8-7-7-4-8v-4l9 1 19 4h21l5-2 3-3 6-17 11-23 7-10 2-7-8-13-8-11-4-8-3-11-1-12 5 2 19 13 12 6 5 2 8 1 1-1h9l2-4 10-7 18-13 15-10 25-12 24-8 20-5 3 1 1 2 8-12 6-6z"></path><path fill="#008306" d="M284 148h2l5 6 17 10 13 12 6 10 7 19-1 3-4 2-12-1-6-1h-10l-19 5-8 3-1 4 2 5 6 2 6 5 9 4h7l9-3 5-5 8-9 6-2 5 1-2 13-5 12-9 17-4 14-1 6h2l2 4 2 9 5 11v2l7 1 7 4-6-5v-2l-4-2v-2l5 2 15 15v2l5-1h3l-3-9-9-10-6-10-3-10v-8h2l2-10 7-13 7-10 3-4v-6l-4-6 1-2 13 9 8 6 6 7 5 13 1 6v10l-3 6-4 3-3-1 1-4h-2l-1 3-4-1-7-10-3-1-1 8-2 3h-2l3 6 4 5 2 1v2h23l7-5 5-11 2-11 1-1 1-8 3 2 4 21 1 3v15l-10 15-14 14-16 11-15 13-8 10-8 15-1 3v10l3 3 3-12 6-12 7-7 12-8 14-11 10-9 12-12 7-9v3l-6 8-14 15-14 12-11 9-10 9-8 14-3 7-1 7h-8l-9 6-2-4-3-15-8-12-1-4 7-13 10-13 2-4-1-8-4-8v-3h-2l-2 6-11 18-3 3-8 15-2 6v8l4 11 7 14 2 9-4 8-6 8-9 6-13 4-7 1h-10l6-4 11-3 8-4 4-4 3-8 5-11-8 7-9 6h-2v2l-13 4h-14l-18-3-13-6v-2l-6-2-7-5 2 9v5l-4-2-4-6-1-3v-7l8-16 3-12 1-11h-2l-3-9-7-10-10-19v-2h-2l1-5 9-13v-6l1-5h-3l-1-8-6-2h-4l-2 3-3-14-7-12-10-16-4-8v-2l4-3h5l1-2 4 1 8 11 4 8 8 10 4 7v2h2l5 12 1-4-8-18-12-18-4-9v-3h6l13 8 3 1-6-7 1-4 3-5h11l8 4 2 3-1 5 5-2h3l-2 4-4 2h-12l-5-2 3 3 3 1h9l12-4 5 1 8 2v-10l-3-6-14-4-14-5h-13l-8 4-5-1-6-5-1-5 5-6 3-8 2-8 7-8 14-9 10-4 7-6 4 1 4 4 12 4h12l10-6z"></path><path fill="#010A01" d="M258 1h8l9 3 6 7 4 6v2l8 1 24 7 27 10 20 10 19 12 9 7v3l-5-2-23-12-16-8-20-8-35-11-4-3 2 6 9 12 8 8 10 7 7 6 8 5-2 1-10-4 4 4 12 7 16 6 6 5 5 6v2l-5-1-8-6h-4v-4l-7-1 2 5-17 1-16 4-14 7-5 3-4-6 2-4 9-8 11-5 11-3 10-2-4-1h-21l-10 2v2l-8 3-3 3-4-1-4-5-4-4 10 17 6 13 2 7v9l-5 17-6 11-8 7-2 1h-9l-10-5-6-10-1-8h-2l-1-8h-2v-2h-3l-1-5v-8l-5-2-2-4-14-6-13-3h-20l-8 2v2l-9 5-1 2 14-5 6-1h9l12 3 16 8 10 9 4 5 3 9v13l-4 5-7-1-10-6-12-10-11-6-13-3h-14l-13 5-4 2h-3l-2-7-1-5 2-9 7-6-9 4-2 3h-2l-2 6-2 3-13-1-18-5-11-6h-2l-1 9v2l2-2 5 1 16 5 8 1 4 1v2l2 1-15 9-6 5-1 2 4 1 3 4-2 4-7 8-11 7-11 5-14 5-14 3H28l-9-1 1 3-7-1-7-7-4-8v-4l9 1 19 4h21l5-2 3-3 6-17 11-23 7-10 2-7-8-13-8-11-4-8-3-11-1-12 5 2 19 13 12 6 5 2 8 1 1-1h9l2-4 10-7 18-13 15-10 25-12 24-8 20-5 3 1 1 2 8-12 6-6z"></path><path fill="#FEFFFE" d="M1313 102h85l1 4-2 1-10 1-4 3v8l11 31 15 39 17 45 10 26 4-9 43-107 9-24 1-8-2-3-3-1-11-1-3-3 2-2h133v4l-2 1-13 2-5 5-1 4-1 18v129l1 26 2 8 4 4 15 2 7 1v4l-2 1h-83l-3-2 1-3 17-3 3-6 2-18V124l-2-10-5-5-3-1h-10l-8 4-6 9-8 17-13 30-16 35-18 41-13 30-16 36-4 4-5-1-4-6-16-39-17-41-19-46-17-41-8-18-5-8-10-5-3-1-12-1-1-4zM1212 98h17l19 2 19 5 12 5 14 8 11 9 10 11 8 13 6 15 4 19v32l-4 20-7 18-9 15-12 13-7 7-15 10-16 7-13 4-19 3h-26l-18-3-18-6-17-9-13-11-10-11-7-11-7-14-5-16-3-21v-12l2-16 6-20 8-16 8-11 9-10 12-10 14-8 16-6 20-4zm-12 14-12 3-14 7-11 10-9 14-5 13-3 14-1 7v34l3 17 6 18 8 15 7 9 6 7 12 9 12 6 13 4 6 1h21l12-3 13-7 10-9 7-10 5-10 4-12 3-17 1-13v-14l-2-19-5-19-8-17-8-11-8-9-13-9-13-6-12-3z"></path><path fill="#010301" d="m354 220 11 7 10 7 7 8 5 13 1 6v10l-3 6-4 3-3-1 1-4h-2l-1 3-4-1-7-10-3-1-1 8-2 3h-2l3 6 4 5 2 1v2h23l7-5 5-11 2-11 1-1 1-8 3 2 4 21 1 3v15l-10 15-14 14-16 11-15 13-8 10-8 15-1 3v10l3 3 3-12 6-12 7-7 12-8 14-11 10-9 12-12 7-9v3l-6 8-14 15-14 12-11 9-10 9-8 14-3 7-1 7h-8l-9 6-2-4-3-15-8-12-1-4 7-13 10-13 2-4-1-8-4-8v-3h-2l-2 6-11 18-3 3-8 15-2 6v8l4 11 7 14 2 9-4 8-6 8-9 6-13 4-7 1h-10l6-4 11-3 8-4 4-4 3-8 5-11-8 7-9 6h-2v2l-13 4h-14l-18-3-13-6v-2l-6-2-7-5 2 9v5l-4-2-4-6-1-3v-7l8-16 3-12 1-11h-2l-3-9-7-10-10-19v-2h-2l1-5 10-15 2-6 1-11 2 4v8l-1 5 8 11 8 8 7 8 10 11 9 5 4 1h9l10-4 21-21 9-11 7-11 2-8 1-6h2l2 4 2 9 5 11v2l7 1 7 4-6-5v-2l-4-2v-2l5 2 15 15v2l5-1h3l-3-9-9-10-6-10-3-10v-8h2l2-10 7-13 7-10 3-4v-6l-4-6z"></path><path fill="#FEFFFE" d="m564 97 4 1 18 18 7 8 14 14 7 8 55 55 7 8 20 20 7 8 19 19 2 1-1-5-3-126-2-11-4-5-5-2-14-1-3-2 1-3h73l1 3-4 2-10 1-6 4-2 5-1 7-2 99-1 58-1 30-2 3-6-1-12-11-100-100-7-8-9-9-7-8-15-16-2-4-1 1 3 116 2 19 4 8 6 3 16 2v4l-3 1h-71l-2-1v-4l16-2 4-2 3-8 1-9 2-116 1-64 2-7zM1770 102h82v4l-2 1-12 2-5 5-1 4-1 15-1 61 8-7 10-10 7-8 15-15 7-8 9-9 9-11 7-10v-7l-6-3 1-4h68v4l-19 4-15 8-13 11-61 61 6 8 10 11 7 8 24 26 15 16 23 23 14 11 14 8 15 4 6 1v4l-3 1h-41l-15-2-14-7-15-13-14-15-9-10-7-8-24-28-11-13-6-8-2-1 1 64 1 22 3 9 6 3 17 2-1 4-1 1h-81l-2-1v-4l17-3 3-5 2-12 1-31V137l-1-18-3-7-4-3-4-1-13-1-2-1z"></path><path fill="#008406" d="m332 181 11 4 17 6 9 8 5 2h15l10-2 14-1 5 3 2 7-1 12-4 6-2-1 2-4 2-5-5 1v2l-7 3-5 1h-8l-5-3 6 8 11 22h4l8-5 5-2h6l1 1 1-5v-27l-4-13-2-6 5 3 7 4 14 5 12 1 3-5 5-2 2 8 1 23v16l-3 18-7 27-11 24-11 19-9 11-14 17-12 12-11 9-13 12-6 5-3 9-3 10-5 1-6-5-9-16-2-5 2-10 8-15 9-10 11-9 14-12 8-7 12-13 4-7-9 11-17 17-17 13-14 10-6 7-5 12-3 9-3-1-1-2v-10l8-16 6-8 8-9 11-9 17-12 13-13 9-14v-15l-4-18-2-7-1 7-2 7-3 10-5 8-6 4h-18l-5-1v-2l-4-2-5-7v-3h2l1-4 2-7 4 1 7 10h3l1-2h2v4l5-2 3-6v-10l-3-12-5-10-9-8-11-7-2-3-2-4-14-14-4-8-5-12z"></path><path fill="#008506" d="m110 153 4 2 3 7-4 3h6l-4 4-31 19-18 8-10 3 1 9h8l20-5h8l-1 11-1 5v15h3l6 5 15 6 4 2-1 8-3 4-8 1-2 9h-4l-6-10-2-6 2 14 8 24 8 15 8 11 9 10 8 7 10 8 22 13 12 11 4 9v8l-1 2h-2l-4-10-8-7 5 13 3 7 1 9-6 11-11 14-3 2-4-9-4-13-10-8-13-9-15-13-15-15-9-12-7-10-12-21-8-17-6-18-5-30v-35l1-14-15-2-13-5-9-7v-2l5 1v-2h32l18-4 19-8 10-6 8-7z"></path><path fill="#FEFFFE" d="M906 100h6l-1 16-2 23-1 2h-4l-3-14-4-5-9-3-8-1-38-1v75l45-1 11-2 6-5 4 1-3 40-2 5-3-1-2-12-4-6-7-3-8-1-37-1 1 74 3 9 7 4 13 2h20l12-2 8-4 5-8 3-12 4-1 1 1v11l-3 23-3 6-6 2H786l-3-2 1-3 16-3 3-4 2-8 1-12V123l-2-9-4-4-5-2-14-1-2-4 1-1h112zM928 98l14 3 17 1h126l21-3 1 2v20l-1 20-4 1-4-14-5-4-12-4-9-1-38-1-1 2v127l1 39 2 12 5 5 3 1 19 2v4l-2 1h-84l-3-2 1-3 14-2 5-5 2-10 1-16 1-156-3 1-36 1-15 1-10 3-5 6-5 10-2 1-2-1v-11l5-25zM1698 98h16l17 2 13 3 2 2-1 39-1 3-3 1-2-2-2-11-5-10-7-7-11-5-5-1h-14l-10 3-9 6-5 9-1 4v11l4 10 8 10 14 12 19 14 13 12 7 7 7 10 6 12 3 12v21l-4 13-4 8-9 11-10 7-10 5-14 4-8 1h-25l-16-3-13-5-2-3v-29l1-15 3-5 3 1 3 17 5 12 7 8 12 6 10 2h11l11-3 9-5 6-7 4-10v-14l-4-11-6-9-6-7-11-9-14-11-14-12-11-12-8-13-4-11-1-5v-21l4-11 6-10 10-9 16-8 12-3z"></path><path fill="#06D30E" d="M284 148h2l5 6 17 10 13 12 6 10 7 19-1 3-4 2-12-1-6-1h-10l-19 5h-8l-1-10-4-5-2-1 5 12 1 5-4 7v7l1 2 12 1 12 6h21l11-2 2 4-5 8-11 11-5 4-10 6-5 6-3 8-2 8-4 6-4 1-7-3-2-1v-2l-13 2h-9l2-4 4-2h8l2 1 4-6 7-4 1-2h2v-6l-7 1h-18l-3-3v-4h3l2-22 1-3v-18l-2-7 1-9v-4l-6 11-1 1h-12l-14-5h-13l-8 4-5-1-6-5-1-5 5-6 3-8 2-8 7-8 14-9 10-4 7-6 4 1 4 4 12 4h12l10-6z"></path><path fill="#008406" d="m192 277 6 1 4 2 1 2v6l3-1 1 5-1 3-1 5-9 14-1 3h2l12 23 6 8 2 4v5h2v11l-4 15-7 13v7l4 8 4 3-2-7v-7l4 2 9 5v2l6 2 11 4 14 2h14l13-3v-2l10-6 7-7h2l-3 9-3 6-2 5-7 6-11 4-6 2-2 1 14-1 13-4 9-6 7-10 2-5-2-9-8-16-3-9v-8l5-12 7-12h2l2-5 8-13 3-6h2l6 14-1 7-4 6-9 12-5 11 4 8 5 7 4 18 1 1-1 13-6 10-9 9-11 8-14 7-11 2h-34l-17-4-13-7-10-9-7-11-5-12-2-8 1-8 5-13 4-7-1-6-6-11-9-12-8-12-3-4 1 5 1 8-4-2-7-10-1-2v-7l2-4h2l2-5 12-12 5-8 3-10z"></path><path fill="#020D03" d="m354 220 11 7 10 7 7 8 5 13 1 6v10l-3 6-4 3-3-1 1-4h-2l-1 3-4-1-7-10-3-1-1 8-2 3h-2l3 6 4 5 2 1v2h23l7-5 5-11 2-11 1-1 1-8 3 2 4 21 1 3v15l-10 15-14 14-16 11-15 13-8 10-8 15-1 3v10l3 3 3-12 6-12 7-7 12-8 14-11 10-9 12-12 7-9v3l-6 8-14 15-14 12-11 9-10 9-8 14-3 7-1 7h-8l-9 6-2-4-3-15-8-12-1-4 7-13 10-13 2-4-1-8-4-8v-3l-2-1-2-9 6 1 7 4-6-5v-2l-4-2v-2l5 2 15 15v2l5-1h3l-3-9-9-10-6-10-3-10v-8h2l2-10 7-13 7-10 3-4v-6l-4-6z"></path><path fill="#008206" d="m61 54 5 2 19 13 12 6 5 2 8 1 1-1h7l1 3-11 3 1 4 5 3 9-1 6-3 6 1 12 7 3 2-2 4-6 2h-4v2l-3 1 5 2-3 9-4 7-13-1-18-5-11-6h-2l-1 9v2l2-2 5 1 16 5 8 1 4 1v2l2 1-15 9-6 5-1 2 4 1 3 4-2 4-7 8-11 7-11 5-14 5-14 3H28l-9-1 1 3-7-1-7-7-4-8v-4l9 1 19 4h21l5-2 3-3 6-17 11-23 7-10 2-7-8-13-8-11-4-8-3-11z"></path><path fill="#00C40F" d="m442 210 5 1v2l3 1 1 2 7 1 2 7v19l-1 1-2 10-8 25-5 15-8 16-8 11-12 14-7 6-12 7-9 7-12 9-7 7-2 7h3l-3 10v5l7-6 8-7 13-10 5-4 14-14 8-10h2l2-5 3-3 3-7 5-7 3-3 5-10 4-11 5-13 4-10h2l1-8 3-17 1-18 1-5h2l2 9v12l-3 18-1 2h2l-4 18-5 14-8 17-11 19-9 11-14 17-12 12-11 9-13 12-6 5-3 9-3 10-5 1-6-5-9-16-2-5 2-10 8-15 9-10 11-9 14-12 5-2 8-8 7-8 5-5 3-7 10-19 8-20 2-13 1-2 1-43z"></path><path fill="#09CA0D" d="m392 137 13 1 10 5 2 4h2v3l5 1 17 10 13 5 1-2 7 4 8 2h21l16-3 8-4h4l-1 6-9 14-9 9-10 3-19 3-2 1v-2l-7-1-16-6-17-8-15-10-9-5-2-3 6-1 11 5-4-4-8-6 1-3-7 2-10 7-9 3-3-1 2-3-1-3-17 6h-18l-9-3-11-6-3-4v-3l8 1 6 2h18l14-4 10-5h2l1-3 9-3z"></path><path fill="#00B00B" d="m332 181 11 4 17 6 9 8 5 2h15l10-2 14-1 5 3 2 7-1 12-4 6-2-1 2-4 2-5-5 1v2l-7 3-5 1h-8l-5-3 6 8 8 16 3 9v11l-3 13-5 10-7 5h-18l-5-1v-2l-4-2-5-7v-3h2l1-4 2-7 4 1 7 10h3l1-2h2v4l5-2 3-6v-10l-3-12-5-10-9-8-11-7-2-3-2-4-14-14-4-8-5-12z"></path><path fill="#00A909" d="M284 148h2l5 6 17 10 13 12 6 10 7 19-1 3-4 2-12-1 2-3h2l-4-13-3-9-6-11-5-5h-6l-12 7-5 5-13 8-4 1h-11l-6-3-9-1-11 4-11 7-2 2v3l4 2v2l6 1 2 2h-16l-8 4-5-1-6-5-1-5 5-6 3-8 2-8 7-8 14-9 10-4 7-6 4 1 4 4 12 4h12l10-6zM234 18l3 1 1 3h-2l-2 5-7 9-11 12-10 7-8 7-5 4-18 8h-11l2 1v4l-3 2-10 1h-24l-5 2-4 3-6 1-5-5-1 4-1-4 3-2 9-1-1-3h2l2-4 10-7 18-13 15-10 25-12 24-8z"></path><path fill="#010701" d="m354 220 11 7 10 7 7 8 5 13 1 6v10l-3 6-4 3-3-1 1-4h-2l-1 3-4-1-7-10-3-1-1 8-2 3h-2l3 6 4 5 2 1v2h23l7-5 5-11 2-11 1-1 1-8 3 2 2 23-1 10h-2v4h-6l-2 7-1 3 2 5-5 2-2 5-5 2-4 1-1-3 3-3 2-7 2-6h-4l-13 2-12 1-3 1-1 5-3-1-7-8-6-9-4-12v-8h2l2-10 7-13 7-10 3-4v-6l-4-6z"></path><path fill="#008D09" d="m110 153 4 2 3 7-4 3h6l-4 4-31 19-18 8-10 3v25l2 25 3 17 5 22 5 11 4 11v2h2l8 14 6 9 4 7 9 12 23 23 13 10 9 7 1 4-5-2-20-15-4-1-13-12-11-11-9-12-7-10-12-21-8-17-6-18-5-30v-35l1-14-15-2-13-5-9-7v-2l5 1v-2h32l18-4 19-8 10-6 8-7z"></path><path fill="#00AA0A" d="M345 102h17l12 3 8 6 5 9v10l-3 5-3 1-9-4-11-5-9-1-17 7-14 9-15 12-5-1-9-6-3-4 1-9 4-9 9-8 11-7 12-5z"></path><path fill="#F4FCED" d="M291 63h14l13 4 24 12 11 4 6 5 5 6v2l-5-1-8-6h-4v-4l-7-1 2 5-17 1-16 4-14 7-5 3-4-6 2-4 9-8 11-5 11-3 10-2-4-1h-21l-10 2v2l-8 3-3 3-4-1-4-5-4-4 10 17 6 13 2 7v9h-4l-3-3-2-5-4-3-5 16-1-4-1-14-5-13-2-3-9 13-4 8-5 15-2-3-1-2v-12l4-12 8-11 9-10 3-5 10-3 8-5z"></path><path fill="#00C40F" d="m75 211 2 1 1 34 4 25 8 20v2h2l4 10 5 9v4h2l5 8v2l4 2 3 4v2l4 2 12 12 4 3 5 2 11 8v3l4 2 7 8v7l-5-1-7-6-21-10-15-16-8-11-7-14-6-4-9-11-5-8v-2h-2l-7-19-7-36-1-6v-16l4-6 5-3z"></path><path fill="#020C03" d="M118 246h2l1 7 1 4h-2l1 7v3l-1 15v4h-2l2 5 3 12 9-1 8-1h17l2 3-1 6-2 7v10l5 9v5l-5 6h-3l-11-7-12-11-7-6-9-11-8-13-6-13-6-19-2-11v-5l2 2 4 10 4 6h2l3-9 9-3 2-6z"></path><path fill="#00930A" d="M130 136h7l7 7v2l8 2 12 4h30l10-3 5 1 7 5-3 5-10 7-16 8-4 1h-18l-20-5-14-7-19-14-1-4 8-6 5-2z"></path><path fill="#06D40E" d="m270 206 2 3 1 5-4 7v7l1 2 12 1 12 6h21l11-2 2 4-5 8-11 11-5 4-10 6-5 6-3 8-2 8-4 6-4 1-7-3-2-1v-2l-13 2h-9l2-4 4-2h8l2 1 4-6 7-4 1-2h2v-6l-4 1-8-1 3-2 5-1-3-10-6-31 1-7 4-6z"></path><path fill="#F1FCEA" d="M455 54h5l1 6-4 16h-2l-2 6-7 8-9 8-8 4-17 4h-9l-23-3-6-3 4-4 10-5 11-4 5 1h8l3-2-1-4h-16l-1-1h-12l-25 1 1-4 6-3 4-1h19l9 2 20 1 16-8 10-7 8-6z"></path><path fill="#09B20B" d="m192 277 6 1 4 2 1 2v6l3-1 1 5-1 3-1 5-9 14-1 3h2l12 23 6 8 3 9-1 11-5-3v5h-7l-5-12-3-4-2-5-2-1v-2h-2l-8-12-5-5-3-4 1 5 1 8-4-2-7-10-1-2v-7l2-4h2l2-5 12-12 5-8 3-10z"></path><path fill="#DDF9D4" d="M258 1h8l9 3 6 7 4 6v2l8 1 24 7 27 10 20 10 19 12 9 7v3l-5-2-23-12-16-8-20-8-35-11-4-3 2 6 9 12 5 6h-6l-5-2h-7l-7-6-4-7-4-11-5-9-1-1h-7l-12 26-7 9-3 2-5-1-1-3 3-10 2-3 3-13 7-11 6-6z"></path><path fill="#008F08" d="m293 28 7 1 36 12 25 11 26 14 5 3 1-2 4 4 1 6-8-2h-23l3-2-8 1-5 1-12-3-12-5-9-6-9-7-13-11-6-8-1-3 1-2z"></path><path fill="#09CC14" d="M466 225h2l2 9v12l-3 18-1 2h2l-4 18-5 14-8 17-11 19-9 11-14 17-12 12-11 9-13 12-6 5-3 9-3 10-5 1-4-3 1-6 3-10 3-5 3-3 3-5 9-8 13-10 5-4 14-14 8-10h2l2-5 3-3 3-7 5-7 3-3 5-10 4-11 5-13 4-10h2l1-8 3-17 1-18z"></path><path fill="#F5FCEF" d="m61 54 5 2 19 13 12 6 5 2 8 1 1-1h7l1 3-11 3 1 4 5 3 9-1 6-3 6 1 12 7 3 2-2 4-10 3-16 2-5-1-18-1-9-3-9-6-4-4v-2h-6l-5-8-4-14z"></path><path fill="#05C90D" d="m349 221 4 2 5 6v6l-8 12-6 10-4 11-1 3h-2l2 12 5 12 9 10 5 8 1 5-2 2-7-1-3-5-8-7-7-6-2-1 7 8 4 4-5-2-6-3-4-1-7-16-1-6v-12h2l1-8 7-14 8-10 4-7 8-11z"></path><path fill="#05CD0D" d="m434 223 3 4v26l-2 14h-2l-1 5-8 19-8 16-11 14-11 11-3 5-16 13-16 11-7 8-5 12-3 9-3-1-1-2v-10l8-16 6-8 8-9 11-9 17-12 13-13 6-9h3l1-4 9-19 3-10 6-33 1-10z"></path><path fill="#1AE40D" d="m444 219 3 3 4 12v3h6v8l-2 5-4 2-3 9v8l-9 27-6 11-4 2-1-1-1 3 2 1-8 8-7 9-16 14-5 5-18 14-9 9-5 10h-3l-1-7 5-9 6-4h2l9-11 6-7 6-5 5-2 8-8 7-8 5-5 3-7 10-19 8-20 2-13 2-4 2-32z"></path><path fill="#9BEF83" d="M176 198h3l-1 4-8 7-12 12-3 1-2 4-7 7-7 12-3 12-1 6v14l2 3 7 2-1-4 9-1 5-4 4-8 6-1 1 1v6l4 1-1 7-6 8-9 3-1-4-7-1v6l-1 1h-10l-5-3-5-10-2-8v-11l2-12 3-7 3-10 5-8 8-8 19-14 3-2z"></path><path fill="#020E04" d="M415 310v3l-6 8-14 15-14 12-11 9-10 9-8 14-3 7-1 7h-8l-9 6-2-4-3-15-8-12-1-4 7-13 10-13 2-4 1-9 6 3-2 6-12 16 5-5 8-9 10-15 1 4-4 8-5 8-6 14-7 11v10l1 6h2l2-15 8-16 12-17 3-6 3 1-1 4-5 9v7l-3 3-12 24v10l3 3 3-12 6-12 7-7 12-8 14-11 10-9 12-12z"></path><path fill="#06D20E" d="m82 221 4 2 1 12 2 2 3 22 5 19 6 16 4 8 5 5 7 10 9 10 8 7 10 8 22 13 8 7 3 7-2 1-3-1-5-6-12-9 4 6v2l-6-2-2-1v-2h-2l-3-3-5-3-4-1v-2l-4-1-1-2-3-1-17-17-4-7-4-4v-3h-2l-9-17-5-13-4-13-3-7-2-12v-27z"></path><path fill="#0DCA17" d="m53 208 2 3 3 38 3 17 5 22 5 11 4 11v2h2l8 14 6 9 4 7 9 12 23 23 13 10 9 7 1 4-5-2-20-15-4-1-13-12-11-11-9-12-7-10-12-21-8-17-6-18-5-30v-35l2-4z"></path><path fill="#018407" d="M329 316h2l6 14-1 7-4 6-9 12-5 11 4 8 5 7 4 18 1 1-1 13-6 10-9 9-11 8-3 1 2-4 7-8 12-17 4-5 1-4-1-7-1 7-3 3-5-1-5-12-3-5 1-2 2 2-3-19-1-11h-2l1-5 11-20 7-11z"></path><path fill="#F3FCEC" d="m392 137 13 1 10 5 3 4-1 4-3 2-8 1-14 10-9 3-3-1 2-3-1-3-17 6h-18l-9-3-11-6-3-4v-3l8 1 6 2h18l14-4 10-5h2l1-3 9-3z"></path><path fill="#00950B" d="m190 182 1 3-5 12-4 6-3 2-2 4h-2l-1 4-10 10-14 11-7 11-4 13v12l3 6 10 1v1h-9l1 4-7-1-3-4v-14l3-15 6-12 9-10 8-8h2l2-4 12-12 2-1 1-3-11 2-15 11-5 4-2-1v-2l-3 1h-16v-2l-5-1v-2l-5 1-4 5h-6l-2-2v-8l5-4 2-1h10l24 4 4 1 9-7 11-8 8-4z"></path><path fill="#01AA0A" d="m78 298 4 5 6 9 5 5v2l5 2 6 9 5 10 7 9 8 8 5 6 23 11 6 6 4 1v-7l3 4v12l-5 8h-2l-2 4h-6l-10-8-13-9-4-5 5 2 15 12 7 4-3-5-16-12-12-11-18-18-6-9h3l1 4h3v-3l7 1-4-7-11-16-5-5-8-10-3-6z"></path><path fill="#01990A" d="m151 112 2 1-6 4-3 4v2l4-1v-2l13-5h19l10 4 6 1 3-1 15 5 14 11 3 3 3 1-1-2v-6l2 4v13l-4 5-7-1-10-6-12-10-11-6-13-3h-14l-13 5-4 2h-3l-2-7-1-5 5-7z"></path><path fill="#F2FCEC" d="m103 149 5 1 2 4-9 10-11 7-11 5-14 5-14 3H28l-9-1 1 3-7-1-7-7-4-8v-4l9 1 19 4h21l14-2 12-4 15-10z"></path><path fill="#008306" d="m237 152 4 1 4 4 12 4h12l6-2-3 3-7 3-12 1-13 3-16 10-11 9-6 8-2 2 12 5v2l6 1 2 2h-16l-8 4-5-1-6-5-1-5 5-6 3-8 2-8 7-8 14-9 10-4z"></path><path fill="#00C20F" d="m267 197 4 2 3 4v10h5l-3 2-3 3 2 7 6 2 6 5 9 4h7l9-3 5-5 8-9 6-2 5 1-2 13-5 12-7 8-3 8-9 9-8 16-7 13-7 7-11 3h-15l-4-2 4-5h7l1 1 11 1 3 1-1-3-8-3 8-2 4-7 3-12 4-6 7-6 6-3h2l1-3 8-7 7-8 2-5-2-2-10 2h-21l-12-6-12-1-2-3v-7l4-7-3-11z"></path><path fill="#FCFEFB" d="M345 102h17l12 3 8 6 5 9v5l-3-1v-2l-5-2-9-3v-2l-20-1-1 1-14 3-16 6-8 4-4 4h-3l-1 3-8 4h-4l1-10 3-5 8-7 11-7 12-5z"></path><path fill="#1BE60D" d="m299 171 6 1 5 9 7 9 4 11v5l-1 2-5-1-4-1-16 1-13 4-4-1-2-6v-4l-6-3v-4l7-4 7-8 8-7z"></path><path fill="#030D04" d="M301 207h10l13 2 9-1 3 2 1 10-2-2-8 1-7 6-6 8-6 3-5 1h-7l-9-4-4-3v-2l-6-2-4-4-1-4 4-4 20-6z"></path><path fill="#EBFBE3" d="m286 66 4 1-10 13-5-1-4-4 10 17 6 13 2 7v9h-4l-3-3-2-5-4-3-5 16-1-4-1-14-5-13-2-3-9 13-4 8-5 15-2-3-1-2v-12l4-12 8-11 9-10 3-5 10-3 7-3z"></path><path fill="#0DD00D" d="M259 12h7l4 5 6 13 3 7 4 6 4 3h7l5 2 7 1 12 9 7 6 8 5-2 1-15-6-16-4-9-2-8-5-15-7-9-2 1-10 3-13h1v20l5 1-2-6-3-22h-4l-5 21-6 12-4 3h-6l-8 3-13 1v-4l11-9 7-11 1 3-3 6-2 9 5 1 5-4 8-14 8-18z"></path><path fill="#ECFBE4" d="M181 101h9l12 3 16 8 10 9 4 5 1 2 1 11-4-1-9-8-7-5-15-5-7 1-8-4-4-1h-19l-11 4h-2v2l-5 2 1-4 5-5 10-7 16-6zM421 150l8 4 16 9 9 3 1-2 7 4 8 2h21l16-3 8-4h4l-1 6-6 10-5 1-5 2h-31l-20-6-14-5-1-3-5-1-8-6-6-2v-2l-3-1v-2z"></path><path fill="#009F09" d="M269 108h1l1 14 4-13 7 5 2 5 4 3-2 10-4 10-6 9-6 5-2 1h-9l-10-5-2-4h2l4-25 3-13h1l-2 22 4-6 5-1 5 3z"></path><path fill="#028707" d="m430 113 5 1 9 17 12 31-2 4-6-1 2-2-9-4-14-9-9-9-13-7 4-4 16-11 4 1 4 7-4-12z"></path><path fill="#9BF083" d="m355 204 6 1 17 9 9 7 6 7 8 16 3 9v11l-3 13-4 8-5 1v-4l1-3-5 2 1-4 3-5 1-4v-10l-5-17-7-7-17-12-9-8-1-7z"></path><path fill="#ECFBE5" d="M130 136h7l7 7v2l8 2 12 4 6 1 23 1-4 4-1 5-6 4-1 2h-14v-2l-6-1-25-13-8-1-5 1-1 4-11-8 1-4 9-6z"></path><path fill="#038E07" d="M304 74h21l5 2v1l-19 4-12 5-8 6-4 4 2 6 2 1 7-5 14-6 13-3h17l-2-5 7 1v4l4-1 8 6 5 2 1-2 1 3h-9l-8-1h-17l-15 3-14 7-8 7-3 3-1-4 1-3-5-1-5-12-10-18-1-3 4 2 4 6 4 1 4-4 7-1v-2z"></path><path fill="#01AA0A" d="m197 233 10 1 4 2 12 1 16-1 4 3v8l-5 12-2 4-3 2-7 1-9-3-6-4-13-19z"></path><path fill="#00C20F" d="m176 224 4 1 8 11 4 8 8 10 5 9-1 3-3-2 4 13 2 6-2 5h-2l-1-8-6-2h-4l-2 3-3-14-7-12-10-16-4-8v-2l4-3h5zM287 162h10l8 4 8 8 8 17 9 10 3 1 1 5-5 3-12-1 2-3h2l-4-13-3-9-6-11-5-5h-6l-12 7-5 5-13 8-4 1h-11l-6-3-9-1-11 4-11 7-2 2v4l-6-2 1-3 11-9 9-6 6-3 9-1 14 2 9-2 9-6 8-7h2v-2z"></path><path fill="#16E10D" d="M220 32h7l-1 3-13 8-4 3-5 1 1-2-8 4-8 3-3 2-12 6-5 3-15 5-9 4h-2v2h-2v2h25v3l-3 2-10 1h-18v-2h-8l-1-2 12-6h2v-2l4-2 5-5 12-7 4-1 4-4 21-10 7-3z"></path><path fill="#018407" d="m139 350 5 1 7 4v2h2v2l6 2 2 1-5-7 1-2 9 7 8 7v2l4-1-2-5 5 5 3 7v8l-1 2h-2l-4-10-8-7 5 13 3 7 1 9-6 11-11 14-3 2-4-9-3-11v-3h5l6-7 2-4v-12l-1-4-3-1-7-8-2-1 1-2 8 7 6 7 6 12-3-10-7-10-8-7-15-10z"></path><path fill="#00940A" d="m330 300 5 2 15 15v2l5-1h5v11l-7 12-10 14-6 13-2 13-1 2h-2l-2-6v-10l9-15 7-16 5-7v-4l-10 14-12 14v-3l12-17 2-4-5-2-2 3-5-11v-3l-2-1-2-9 6 1 7 4-6-5v-2l-4-2z"></path><path fill="#008306" d="M454 278h1l-1 8-7 17-4 10-4 7-3 3-5 7-2 5-5 7-5 5-12 13-4 4h-2l-2 4-15 12-9 7-5 5h-3l1-6 3-5 5-5 12-11h2l2-4 9-6 8-6 10-13 4-8 11-13 7-12 1-3 5-2 3-10z"></path><path fill="#F1FBEB" d="M258 1h8l9 3 6 7 2 3v8l-6-5-8-6-10 2-12 26-7 9-3 2-5-1-1-3 3-10 2-3 3-13 7-11 6-6z"></path><path fill="#19E50D" d="M281 237h7l4 1 21 1 7 1 3 1-1 4-14 14-18 6-4-4v-2h-2l-1-4h-2l-3-6 1-10z"></path><path fill="#EBFBE3" d="M194 74h11l17 5 12 6 6 5 1 5-3 7-5-1-13-7v-4l-5-2-6-1-4 3h-11l-7 1-3-2 6-3 4-1h14v-2h-22l-8 4-6 6-6 1 1-4 9-9 9-5z"></path><path fill="#00910A" d="m455 76 1 3-6 11-8 10-2 3h-2l-8 8-15 9-11 4h-10l-4-4-5-10v-3l4-1-8-2 4-1 18 2h9l17-4 8-4 10-9 5-6z"></path><path fill="#0BD90D" d="m263 196 4 4v2l3 1 1 10-5 8 1 11 3 13 2 12 3 10-4 2-11 1-3-3v-24l2-8v-15h-2v-11l2-10z"></path><path fill="#008406" d="m322 148 5 1-4 1 3 6 12 7 8 2h18l17-6 2 1-1 5h4l4 1-4 2-10 2-6 1v2l-14 4h-11l-14-4-14-9-7-7 5-5 4-3z"></path><path fill="#00C410" d="m262 91 3 4 4 9v24l-5-2-5 1-4 7h-1l1-13v-3l-2 9-2 17-2 4h-3l-4-9-2-9v-21l3-8 1 3-2 7v12l2 3 4-13 5-10z"></path><path fill="#008406" d="m74 87 3 1 5 6 10 6 7 2 18 1 7 1 14-1-3 2 5 2-3 9-4 7-13-1-18-5-4-2-3-3-6-4 3-2h7l-10-3v-2l-5-2-4-4-5-1-3-4v-2z"></path><path fill="#6CDA0D" d="m444 219 3 3 4 12v3h6v8l-2 5-4 2-3 9v8l-9 27-6 11-4 2 2-8-6 5 1-5 8-18 5-17 2-14 2-32z"></path><path fill="#01AA0A" d="M457 251h1l-1 10-10 30-7 16-9 13-9 11-4 8-9 11-9 7-8 5-5 5-12 11-5 6-3 8 2 1h-3l1-8 3-7h-3l1-7 10-10 22-16 12-7 7-7 9-11 7-10 8-16 6-18z"></path><path fill="#19E50D" d="M74 220h1l2 24 2 8 3 19 8 20v2h2l4 10 5 9 1 6-3 2-6-5-10-16-5-12-5-24-2-10-1-19v-8h2v-2h2z"></path><path fill="#00A609" d="M256 315h19l3 3v8l-3 7 1 4-8 4-3 1h-9l-10-4-5-6v-2l5 2 6 1-3-5-1-1 1-7 5-4z"></path><path fill="#00B90D" d="M186 82h19l3 1v2l-14 1-9 3 6 1 3-1h11l4-3 6 1 5 3 1 4 14 7h3l2-2-1 5-5 8-6-3-2-4-14-6-13-3h-20l-11 4-6-1 1-5 3-3v3l7-3 8-7z"></path><path fill="#00BE0E" d="m219 423 6 3 5 1v2l10 3 12 2h25l17-4 6-1 1 4-3 5-8 4-7 2h-22l-17-2-4-1v-2l-9-2-9-5-2-3z"></path><path fill="#06D30E" d="m75 211 2 1v32h-1l-2-20h-2v2h-2l1 8 1 19 5 25 3 11 6 14 5 7-1 2-9-12-4-8v-2h-3l-5-15-7-38v-16l4-6 5-3z"></path><path fill="#9EF087" d="M329 316h2l6 14-1 7-4 6-11 14-4 7 1 7 6 8 2 5v6l-2-1-1-4-5-5-4-10-2-9-1-13 8-15 7-11z"></path><path fill="#9AEF82" d="M455 54h5l1 6-4 16h-2l-2 6-7 8-9 8-8 4-17 4h-9l-23-3v-1h22l15-5 10-5 1-4h-10l1-3 10-3 11-4 3-1v-3l2 1 1 6-3 1v2l5-3 8-13 2-5 1-8-6 4h-3z"></path><path fill="#E7FBE1" d="m234 18 3 1-4 7-29 8-21 8-19 9-19 12-12 6-5 1 4-4 18-13 15-10 25-12 24-8z"></path><path fill="#6BD90D" d="M466 225h2l2 9v12l-3 18-1 2h2l-1 2-2-1-1 8-5 15-7 16-7 14-7 10-4 5-6 9-16 17-11 11-13 10-5 4-8 7h-3l2-4 18-14 12-11 8-7 7-7 7-9 9-12 9-16 10-23 6-21 4-21 1-18z"></path><path fill="#9EF086" d="m411 198 6 2 3 6-1 6-5 4-4 1h-9l-20-4-18-10-2-4h6l8 4 4 1h7l10-4 3-1z"></path><path fill="#F0FCE9" d="m192 277 4 2 3 3 1 7-3 9h3l-1 5-1 2h-2l-2 5-5 6-9 6-1-3 1-3-11-1-1-2 6-8 9-9 5-8 3-10z"></path><path fill="#FEFFFE" d="m2018 98 12 2 9 6 6 8 3 8v10l-4 10-7 8-8 4-5 1h-11l-10-4-6-5-5-9-2-11 3-12 7-9 8-5zm-3 4-10 4-7 7-3 6-1 10 2 8 4 6 7 6 9 3 11-1 10-6 5-7 2-7v-9l-4-9-5-6-8-4-3-1z"></path><path fill="#008907" d="M431 209h4v2h2l1 4h2l1-4v43l-2 10-3 9-8 20-9 17-3 6-5 5-15 16h-3l10-10 7-8 5-8-9 11-12 12v-3l12-12 11-15 7-15 5-12 4-10h2l1-14v-26l-2-3-1 1-1 10h-1z"></path><path fill="#008C07" d="M107 354h3l5 5 4 2-1-6 5 4 4 5 9 5 15 6 4 5 2 8-1 5-4 4-5-6-7-5-7-3-15-14-5-5-3-5-3-3z"></path><path fill="#018607" d="M315 125h5v3l7-1 4 1-5 5 4 3-13 9-11 9-5-1-9-6-3-4 1-9h1v5l9-3 4-4 5-2 4-4z"></path><path fill="#009A0B" d="m236 20 2 2h-2l-2 5-4 6-1-3-9 3-15 4-10 3-20 9-7 4h-2l-1 3-7 3-10 6-3 1-1 3-4 1v2l-13 7 8 1v1l-10 2-5 4-6 1-5-5-1 4-1-4 3-2 9-1-1-3h2l2-4 4-3 12-4 20-12 14-8 21-9 18-6 22-6z"></path><path fill="#01C60F" d="m223 407 10 4 11 4 14 2h14l13-3v-2l7-4h3l-1 6-8 10-7 3h-24l-10-2-5-3v-3l-4 1-3-1v-3l-5-2-5-5z"></path><path fill="#EDFBE5" d="M230 62h9l12 5 8 8-1 4-7 7-4 2-6-7v-2l-9-3-22-5v-2l12-5z"></path><path fill="#EEFBE6" d="m337 267 1 4v8l4 12 6 9 8 9 3 9-2 2-7-1-3-5-8-7-12-11-4-6 1-4 5-2 2-5z"></path><path fill="#9BF083" d="m62 60 2 4 10 12 8 3 11 2 6 4-1 3h-4v2l4 1 1 1v8l5 1 27 2v1l-9 1-5-1-18-1-9-3-9-6-4-4v-2h-6l-5-8-4-14z"></path><path fill="#EBFBE3" d="M103 85h2l1 2h3l5 3 9-1 6-3 6 1 12 7 3 2-2 4-10 3h-20v-2h-8l-8-7-1-7z"></path><path fill="#030D04" d="m113 181 5 1 2 5-3 5-12 3-6 4-3 4-2 6h-1v-6l-18 3-10 3h-6l-2-1-1-9 7-3 3 1h17l9-3 12-7z"></path><path fill="#008306" d="m314 340 1 2-7 13 1 2 1 1 2 18 2 13-3-1 6 11 1 6h5l2-1-2 5-3 6-8 9-7 9-3 3h-2v-6l-18 4h-5l1-2 14-3 12-6 5-6 5-8 1-6-4-11-8-16-1-4v-8l5-12z"></path><path fill="#6CDA0D" d="m299 34 9 2 9 4 22 6 28 13 17 10v1h-7l-11-4-8-4-12-3-16-6-16-8-9-5-6-5z"></path><path fill="#008006" d="m418 147 1 3 2 1-4 3h-3l3 3 2 4 10 5 7 8 1 3 6 2 14 7-4 1-10-3-12-5 5 4 28 11 7 2-1 3-1-2-7-1-16-6-17-8-15-10-9-5-2-3 6-1 11 5-4-4-8-6 1-3-4-1 1-1 10-2z"></path><path fill="#030D04" d="m311 392 2 2 3 9-1 6-7 11-7 6-12 5-12 2h-10l6-4 11-3 8-4 4-4 3-8 5-11-2-1 5-4h4zM423 182l8 2 10 8 10 5 6 1 2-1-6-3 3-1 13 4-2 4-3 1-3 5-12-1-17-6-8-6-1 4-6-9v-5zM167 134h23l5 6v5l-5 3-13 1-22-3h-9l3-1v-3l7-3 5-2h3v-2z"></path><path fill="#65D90E" d="m75 315 5 5 10 16 8 10 7 9 22 22 13 10 9 7 1 4-5-2-20-15-4-1-13-12-11-11-1-5-12-17-7-11z"></path><path fill="#EEFBE7" d="m267 10 4 2 10 7 1 2 1-5 2 1 2 10h2l7 11 9 10v1h-6l-5-2h-7l-7-6-4-7-4-11-5-9-5-2v-1z"></path><path fill="#69D90D" d="m362 266 4 1 7 10 4 3 11-1h5l-1 6h5l-5 5-3 2h-18l-5-1v-2l-4-2-5-7v-3h2l1-4z"></path><path fill="#9BF083" d="m103 149 5 1 2 4-9 10-11 7-11 5-14 5-14 3H28l-9-1 1 3-7-1-7-7-4-8v-4l9 1 19 4h21l5-1 5 1v1l-14 2H35l-27-5 2 4 8 6 5 2 7 1h16l17-3 11-4 10-5 8-7 6-2 2-7-3-1 4-3z"></path><path fill="#EEFBE6" d="m318 108 2 1-1 2h2v2l3 1 3 3 2 1v2l-18 8-4 4h-3l-1 3-8 4h-4l1-10 3-5 8-7 11-7z"></path><path fill="#F3FCEC" d="M457 55h2v8l-6 12-7 9h-3v-2l2-1-1-6-1-1v3l-8 4-14 5h-2l-2 3-1-9 16-8 7-4 4-5 5-3 5-2z"></path><path fill="#F5FDF3" d="m421 150 8 4 16 9 9 3 1-2 7 4 4 1 3 4-2 5-11-2-12-4-7-1-1-3-5-1-8-6-6-2v-2l-3-1v-2z"></path><path fill="#F0FCE9" d="m195 318 3 1 11 21 6 8 3 9-1 6h-3l-10-9-7-9-4-7v-11l1-8z"></path><path fill="#01A60A" d="m204 148 5 1 7 5-3 5-10 7-7 4h-17l-9-1v-1h11l1-3 6-4 1-5 3-2-22-1v-1l24-1z"></path><path fill="#06D30E" d="M206 239h30l3 2-1 7-5 6-5 2h-8l-8-3-7-8z"></path><path fill="#008306" d="m151 112 2 1-6 4-3 4v2l4-1v-2l13-5 17 1 1 2-4 1-1 2 8 1 10 5 1 3-11-2-4-1h-14l-13 5-4 2h-3l-2-7-1-5 5-7z"></path><path fill="#030D04" d="m231 211 5 1 14 4 4 7v8l-1 2h-6l-3-2-6 1-10 3h-9l-7-4 1-2 5 2h12l5-3 1-2-4 2h-4v-7l2-2z"></path><path fill="#6CDA0D" d="m275 109 7 5 2 5 4 3-2 10-4 10-6 9h-3l-1-2 2-5-3-2-1-16z"></path><path fill="#F8FEF7" d="m392 137 13 1 3 1v3l5 2 3 3-1 3-7 1-7-3h-11l-18 6-6 4h-8l-1-2 5-2 1-3 13-5 5-2 1-3 9-3z"></path><path fill="#008C07" d="m347 208 4 1 5 5 9 8 13 9 10 9 3 8 3 10v10l-3 8-5 4-9 1-2-3 2-3h2v4l5-2 3-6v-10l-3-12-5-10-9-8-11-7-2-3-2-4-8-8z"></path><path fill="#EFFBE7" d="M176 198h3l-1 4-8 7-12 12-8 6-3 3-8 1-2-1 1-5 14-14 10-8 6-4z"></path><path fill="#011502" d="m166 76 1 4-4 3v4l-7 6v3l-4 1-2 3-2-1 2-3-4-2-13-7-5 1-9 3-8-1-2-2v-5l4 2 1 2 6-1 5-4 10-1h18l10-1 3-1z"></path><path fill="#00B90E" d="m123 323 8 6 7 7 13 9 17 10 8 7 3 7-2 1-3-1-5-6-12-9 4 6v2l-6-2-2-1v-2l-2-1v-2l-9-6-11-9-8-6v-4h3l-3-4z"></path><path fill="#02BF10" d="M84 177h3v2l-21 9-9 3-3 5-2 1-16 1-13-5-9-7v-2l5 1v-2l27 1v1l-16 1v2l28-1 18-6z"></path><path fill="#06BF0C" d="M176 202v5l-2 6-10 10-14 11-7 11-4 13v12l3 6 10 1v1h-9l1 4-7-1-3-4v-14l3-15 6-12 9-10 8-8h2l2-4z"></path><path fill="#04990A" d="m353 113 13 1 4 1v2l9 2 5 3 3 3-1 7-4 4-8-3-8-4 1-2-8-3-7-1-1-4 8-1 1-2h-10z"></path><path fill="#008306" d="m374 334 2 1-15 14v3l6-1 13-8 4-4 3 1-12 10-16 11-7 8-5 12-3 9-3-1-1-2v-10l8-16 6-8 8-9 11-9z"></path><path fill="#008606" d="m92 291 3 1 3 7 6 12v2h2l2 5 5 5 4 6 9 9 5 4v2l4 1v2l4 1 1 3 11 7 10 8 6 7 5 10 1 6-3-3-7-13-9-9-15-11-5-2-7-5-7-8-5-4-5-7-3-3-4-6v-2h-2l-3-7-6-12 1-3z"></path><path fill="#9BF083" d="m337 239 5 1h4l-1 6-6 11-11 11-5 10-1 4h-2l-1-10 4-13 6-10z"></path><path fill="#00C40F" d="m367 371 1 2-1 5h3l-3 10v5l4-2-2 5h-2l-2 5-5 15-4-4-9-17 2-11 3-6 1 4-3 7 1 7 3 2-1-3 7-11 4-5z"></path><path fill="#00BC0E" d="m434 223 3 4v26l-2 14h-2l-1 5-6 14-1-4 1-4-4 3 1-6 3-12 5-28 1-10z"></path><path fill="#03B20A" d="m340 84 7 1v4l4-1 8 6 5 2 1-2 1 3h-9l-8-1h-17l-15 3-2 1h-6l2-3-7 1-14 8v-3l5-3 14-7 16-4h17z"></path><path fill="#022F05" d="m209 68 3 1h-2v2l10 1 15 4 6 3 6 8 6-4 6-7 1 2 2 1-10 11-7 11h-2l-2 8v25l-2-3v-5h-2v-2h-3l-1-5v-7l5-8 2-9v-4h3v-6l-5-4-9-3-20-5-6-1v-2z"></path><path fill="#008406" d="m455 76 1 3-6 11-8 10-2 3h-2l-8 8-5 2 1-2h-21l-10-1h-10v-3l4-1-8-2 4-1 18 2h9l17-4 8-4 10-9 5-6z"></path><path fill="#00BF0F" d="m425 125 5 1 7 12 7 17v3l-7-1-7-5-7-10-1-7-2-6z"></path><path fill="#F1FDEE" d="M258 1h8l9 3 6 7 2 3v8l-6-5-8-6h-10l-6 5-9 2 1-8 7-7z"></path><path fill="#008506" d="m118 207 7 1v2l2 1v2l16-1 5-1-3 3-7 1-4 6-5 4h-3l2 5-12-6-10-8-1-4 2 1h6z"></path><path fill="#00A20B" d="m327 157 11 6 8 2h18l17-6 2 1-1 5h4l4 1-4 2-10 2-6 1v2l-9 3h-13v-2l9-2-15-3-11-6-4-4z"></path><path fill="#04C20F" d="M192 322h2v16l6 10 6 7 8 7 3 1v5l-5-3v5h-7l-5-12-3-4-2-5-2-1v-2h-2l-8-12-1-4 5-3z"></path><path fill="#01B00B" d="m110 153 1 2-2 5-4 3h-2v2l-3 1-1 2 5-1-5 5-10 6h-5l-8 4-18 6H30v-2l-3-1 19-1 19-4 17-6 15-8 9-8z"></path><path fill="#9BF083" d="m438 67 2 1-13 8-9 4h-2l1 2v6l-2 2h-11v-1l10-2 1-4-1-1h-16l-1-1h-12l-25 1 1-4 6-3 4-1h19l9 2 20 1 16-8z"></path><path fill="#6CDA0D" d="M288 241h28l4 1-1 3-8 7-4 3-3 1h-9l-6-4-2-3v-7z"></path><path fill="#19E60D" d="M109 329h2l3 4v2l4 2 5 6 5 3 5 5 5 4 7 3 6 7 5 5-3 2-11-6-11-7-12-11-8-10-1-4h-2z"></path><path fill="#07CF0D" d="M98 292h2l5 9 5 3 8 12 5 5 2 5 1 3-3 1 2 4 11 8 6 5 9 6 2 3-5-2-5-3-4-1v-2l-4-1-1-2-3-1-17-17-4-9-12-24z"></path><path fill="#6CDA0D" d="M262 230h2l3 9 3 24 1 5-5 2h-6l-3-3 1-22 3-13zM299 190h8l8 6-4 5-12 5-8 2h-8v-5l7-8z"></path><path fill="#00930B" d="m242 158 10 3 3 1 13 1-3 2-12 1-13 3-16 10-11 9-6 8-4 2 2-6 1-2h2l2-5 5-5 10-9 8-6z"></path><path fill="#6CDA0D" d="m259 12 3 1-2 1-5 21-6 12-4 3h-6l-8 3-13 1v-4l11-9 7-11 1 3-3 6-2 9 5 1 5-4 8-14 8-18z"></path><path fill="#9BF083" d="M112 199h10l15 5 7 4-1 2-9-1-1 3h-6l-5-2v-2l-5 1-4 5h-6l-2-2v-8l5-4zM314 79h5l-4 2-13 5-9 7 1 4 19-7 10-5 7-2 1-1h13l9 5 5 4h3l3 3v2l-5-1-8-6h-4v-4l-7-1 2 5-17 1-16 4-14 7-5 3-4-6 2-4 9-8 11-5z"></path><path fill="#008306" d="m148 174 8 5 3 3-2 6-6 5-5 2-14 1 1-4 7-12z"></path><path fill="#008607" d="m260 13 2 1-4 17-5 13-8 9-18 6-20 6h-4l1-5 14-12 2 1-2 4 13-1 9-3 7-1 5-8 4-12 3-14z"></path><path fill="#01AB0A" d="m310 43 6 2 16 8 20 7 7 2 11 4 7 3h8l2 3-31-1-13-4-5-4-1-3 6 1v-2l-10-3-9-4-14-7z"></path><path fill="#06CF0D" d="M418 244h8l-1 7-6 18-3 5-3-1-4-11-2-7 1-5 8-5z"></path><path fill="#05D00D" d="m395 345 2 1-4 5-13 10-8 7-5 4-3 9-5 6-5 9v2l-4-2-1-7 3-7 2-8 7-10 11-10 7-6 2 1-9 10-2 3-5 2-3 2-4 8v7l3-1 5-10 7-8 6-4 5-4 9-7z"></path><path fill="#010B01" d="m263 97 3 1 3 6v24l-5-2-5 1-4 7h-1l1-13 3-14z"></path><path fill="#E2F9D7" d="M291 63h14l8 2v2l-7-1v2l-5 3 3 4-10 2v2l-8 3-3 3-4-1-3-3v-2l4 1 2-4 7-9-9 1 3-3z"></path><path fill="#020D04" d="m352 322 1 4-4 8-5 8-6 14-7 11v14l-2-1-1-10 3-7 3-6v-5l-4 2-5 6h-2l-1-5 10-13 4-7 1-9 6 3-2 6-12 16 5-5 8-9z"></path><path fill="#00A40A" d="M375 176h10l4 5 3 10-3 2h-13l-6-4-3-5 1-5z"></path><path fill="#021304" d="M156 95h6v4h9l-4 3-5 3-1 3-15 8-3 3v-6l7-6-9 4-3 3 1-7-6-1 2-2h3v-2l12-3 2-3z"></path><path fill="#13D11A" d="m468 202 2 1 1 4 1 23v16l-3 18-1 2h-2l3-20v-12l-1-9h-2l-1 23-4 21h-1l1-12 1-8 2-45z"></path><path fill="#008306" d="M310 214h5l4 5-2 6-4 5-7 3h-11l-10-4-2-2 6-2 7 1 1 1h7l6-3 1-3h-2v2h-5l-1-2-3 1v3h3v2l-6-1-2-1v-3h2v-2l8-4h5z"></path><path fill="#00C30F" d="M254 316h19l3 3 1 6-5 5h-14l-7-3-1-6z"></path><path fill="#008306" d="M367 248h2v11l-1 11-3-3-3-1-1 8-2 3h-2l-1 3-3-7v-14l4-8 2-2z"></path><path fill="#97EE7A" d="M265 84h3l5 13 2 2v3l4 2 6 9 1 2 1-3h2v9h-4l-3-3-2-5-4-3-5 16-1-4-1-14-5-13-3-3 2-4z"></path><path fill="#008506" d="m111 153 5 5 1 4-4 3h6l-4 4-16 10-3-1-15 8-9 2 2-4 16-8 13-8h-4l1-3h3v-2l6-4z"></path><path fill="#008907" d="M265 14h1l4 24 8 10 13 6 8 2v2l13 2v-2h2v-2l4 2 7 6 8 5-2 1-15-6-16-4-9-2-8-5-15-7-9-2 1-10 3-13h1v20l5 1-2-6-2-13z"></path><path fill="#00AB0A" d="m310 349 2 2 2 14 4 14 5 5 1 5-1 2-1 3-3-3v3l4 1 1 7-4 4-3-3-4-10-3-5 1-2 2 2-3-19-1-11h-2l1-5z"></path><path fill="#009109" d="M385 80h12l1 1h16l2 2-1 4-3 2h-8v-1l9-2 1-2h-14l-15 5-10 6h-5l1-3 13-7-6 2-9 1-1 3-8-8v-1z"></path><path fill="#008006" d="m306 79 4 1h-2v2l-14 7-7 7 3 9 11-6 5-3h6l-2 3 2 2-12 7-7 8-2-4 1-3-5-1-5-12v-4l7-4 2-3 4-2 1-2 5-1z"></path><path fill="#07D00E" d="m458 273 1 4-6 18-9 20-10 17-9 11-8 10-11 11-8 7-12 10-12 9h-3l7-7 12-9 10-8 14-14 8-10h2l2-5 3-3 3-7 5-7 3-3 5-10 4-11 5-13z"></path><path fill="#97EE80" d="m85 111 3 1-1 6-4 11-13 26h-2l-2 6-3 2-1-6 7-17 9-17 6-9z"></path><path fill="#9BF083" d="M190 80h12l10 3 12 8 9 7 4 2 1-2v-7l-2-3 4 2 1 5-3 7-5-1-13-7v-4l-5-2-6-1-4 3h-11l-7 1-3-2 6-3 4-1h14v-2h-22l-8 4-6 6-6 1 1-4 8-8v3h1l9-4z"></path><path fill="#DEF9D2" d="M345 102h17l12 3 8 6 5 9v5l-3-1v-2l-5-2-9-3v-2l-12-1v-1l6-1 1-7h-35v-1z"></path><path fill="#68D90E" d="M509 178h2l-2 5-9 9-6 2-7-3-5 1-2 3-4-1-10-6-3-2 7-2h8l6 1h10l7-2 1-2z"></path><path fill="#09CE11" d="m399 372 2 1-4 4h-2l-2 4-16 13-3 3-3 17-2 5-5 1-4-3 1-6 3-10 3-5 5-5v2l5-3 6-5 14-11z"></path><path fill="#00930B" d="m239 235 4 1 2 3v8l-2 8-2 14-3 7-3 1-15-8-9-8 1-2 9 5 6 1 9-2 2-6 4-10v-8l-3-2z"></path><path fill="#9BF083" d="m395 149 8 1 11 2v1l-8 1-14 10-9 3-3-1 2-3-1-3-17 6h-8v-1l13-3 20-10z"></path><path fill="#D6F8CA" d="m430 113 5 1 9 17 12 31-1 2-3-1-6-10-5-12-12-24z"></path><path fill="#008306" d="M352 320h3v10l-8 16v3l-8 14-2 5-2 13-1 2h-2l-2-6v-10l9-15 7-16 5-7 1-6z"></path><path fill="#01B30B" d="M186 82h19l3 1v2l-14 1-9 3-1 2 20 4v1h-25l-11 4-6-1 1-5 3-3v3l7-3 8-7z"></path><path fill="#02C90F" d="m206 43 3 1-3 2 3 1-15 6-3 6-7 3-13 3-5 2-12 3-6 3 15 2v1h-22v-2h2v-2l16-7 10-3 12-7 6-3v-1l9-2 8-5z"></path><path fill="#008907" d="m460 224 3 1v24l-3 24h-2l-2 9-2-2-7 18-4 2 13-39 2-17 1-1z"></path><path fill="#E4FADB" d="m372 213 6 1 9 7 6 7 8 16 2 5v13h-3l-5-18-3-9-5-5-11-8-4-7z"></path><path fill="#6EDB15" d="M234 194h7l3 4 1 8-2 5-9-1-11-3v-2l-4-1 1-3 8-2 1-3z"></path><path fill="#09D70D" d="m82 221 4 2 1 12 2 2 1 18 2 12h-2l-1-5h-2l-1 3-3-2-2-12v-27z"></path><path fill="#26D826" d="m53 208 2 3v29l6 38v5l-3-4-4-17v-10h-2l-1 2-1-5v-35l2-4z"></path><path fill="#01AC0A" d="m151 374 7 6 4 1v-7l3 4v12l-5 8h-2l-2 4h-6l-10-8-13-9-4-5 5 2 15 12 7 4-3-5-9-7 2-1 10 8 3 3 3-5-1-9-4-6z"></path><path fill="#FAFEF9" d="m411 198 6 2 2 3-1 7-5 4-4-2-14-3-4-2 1-4 4-1v-2l3-1z"></path><path fill="#008506" d="m332 181 11 4 17 6 2 3-8-1h-4l2 4 5 2 1 3-5-1-6-2-1 5-2 2-5-6-6-15z"></path><path fill="#17E40D" d="m231 189 13 1 5 5-1 12-2 3h-2v2h-6v-1h5l1-9-3-7h-7l-5 2-3 3-6 2-1 2 4 2-6-1v-2l-5-2v-2l5-3 8-4z"></path><path fill="#021304" d="M77 139h2l-1 5-5 12-2 9 10-5 20-14 2-1v2l4 2-10 4-22 14-14 4h-5l2-4 4-9 2 4 4-7h2l2-7z"></path><path fill="#00B80E" d="m387 325 2 1-4 2-2 4-1 4 6-2 5-1-2 4-2 2h-5l-1 3-16 10-6 1-1-4 10-10 5-4 5-5z"></path><path fill="#010301" d="m359 329 3 1-1 4-5 9v7l-3 3-4 8-4 4-6 12h-2l1-10 3-10 8-12 9-14z"></path><path fill="#008306" d="m353 133 8 1 6 4 2 4-6 3-5 1h-7l-11-4-1-3 6-4z"></path><path fill="#008707" d="m202 55 2 1-9 9-8 4-12 5h-11l2 2-19-2 2-3 22-3 11-4 15-6z"></path><path fill="#00A709" d="m128 150 10 2 21 11-2 3-9-2-4-2-2 1-9-3 7 5-4 1-12-8-1-1v-5z"></path><path fill="#FEFFFE" d="M2017 117h5l5 12 5-12h5v19h-4l-1-8-3 8h-4l-3-8-1 8h-4z"></path><path fill="#1AE40D" d="M275 282h6l1 3 4-1-2 7h-2v2l-3 2-9-2v-2l-13 2h-9l2-4 4-2h8l2 1 5-5z"></path><path fill="#008306" d="m190 182 1 3-4 10-3 1h-7l-6-1-9 2-1 3-8 4-3 3-6-2-2-2 8 1 9-7 11-8 8-4z"></path><path fill="#F7FDF5" d="m61 54 5 2 13 9v3l5 2 2 4-3 3-7 1-6-5-7-9-2-5z"></path><path fill="#00A80A" d="m430 178 11 4 7 3 11 1 12 4 9 5 2-4 5-1 7 3-4 2-10 2h-9l-17-6-18-7-6-4z"></path><path fill="#010201" d="m332 351 3 1-1 7-4 7-1 6 1 13-2-4h-2l-8-12-1-4 4-7h2v2l5-5z"></path><path fill="#008606" d="m236 20 2 2h-2l-2 5-4 6-1-3-9 3-15 4-10 3-20 9-11 6h-5v-2l19-10 21-8 19-6 15-4z"></path><path fill="#00910A" d="m201 405 3 3 2 4 2-3 9 10 3 4 1 7 8 5 11 4-4 1-9-1-11-7-9-10-6-15z"></path><path fill="#01C00E" d="m442 210 5 1v2l3 1 1 2 7 1 2 7v19h-1l-1-13-4 1h-3l-2-9-2-4-4-2v22l-1 14h-1v-41z"></path><path fill="#00900A" d="m314 340 1 2-7 13 1 2 1 1 2 18 2 13-4-2h-2l-5-11-1-4v-8l5-12z"></path><path fill="#008406" d="m324 60 5 2 13 6 14 2 30 1-4-2 1-4 6 2 3 2 1-2 4 4 1 6-8-2h-23l3-2-8 1-5 1-12-3-12-5-9-6z"></path><path fill="#008506" d="M421 243h6l1 2-4 13-7 25 4-3-1 5-8 16h-2l2-5v-15l-4-18-2-7-1 7h-1l-1-13 4 2 2 4 2 10 3 7 2 1 3-9 6-17 1-4h-5z"></path><path fill="#9BF083" d="m223 407 10 4 11 4 14 2h14l13-4 5-1-3 6-4 2h-7l-3 1h-20l-19-3-9-7zM262 11h5l5 6 6 9 8 7 4 6 5 5 5 2v-3l5 6h-6l-5-2h-7l-7-6-4-7-4-11-5-9-5-2z"></path><path fill="#030D04" d="m194 214 25 1v1l-11 1-1 4-2 1 1 5 6 7-5-2-13-8-6-1-1 3-1-3v-7l1-1z"></path><path fill="#00930B" d="M318 257v3l-8 8-8 16-7 13-7 7-11 3h-15l-4-2 4-5h7l1 1 11 1 3 1 1-3 4-1 5-6 12-23 9-10z"></path><path fill="#008806" d="m162 249 4 1 4 4 4 11v10l-2 2-1-5-3-1-1-6-6 1-4 8-1-2 2-6 1-15z"></path><path fill="#00A909" d="m305 165 9 4 7 7 6 10 5 13v3l-4-2-8-9-8-17-4-5-3-2z"></path><path fill="#00950A" d="M431 209h4v2h2l1 4h2l1-4v43h-1l-1-11-2 2-1-18-2-3-1 1-1 10h-1z"></path><path fill="#66D60C" d="m262 91 1 2-8 11-3 7-1 10-1 1-1 13-2 6h-3l-4-11v-21l3-8 1 3-2 7v12l2 3 4-13 5-10z"></path><path fill="#91EB7B" d="m2 166 9 1 19 4h21l5-1 5 1v1l-14 2H35l-27-5 2 4 8 6 6 3v1h-5l1 3-7-1-7-7-4-8z"></path><path fill="#00A309" d="M218 357h1v11l-4 15-4 8-4 2-1-23 5-1v-5h3l2 3z"></path><path fill="#00C410" d="m273 126 6 1 4 4v2h2l-1 5-6 11-4 3-2-3 2-5-3-2v-8z"></path><path fill="#9BF083" d="m196 295 1 3h3l-1 5-1 2h-2l-2 5-5 6-9 6-1-3 1-3-11-1-1-2 2-2v2l9-1 6-4 8-8z"></path><path fill="#030D04" d="M173 323h2l13 19-1 5 3 4 1 8-5-3-9-12-5-7 1-2 4 3z"></path><path fill="#020C03" d="m264 292 5 1 13 7v1h-8l-6-2-9 1-4 3-5-1-1-1-10 1 2-4 4-3 15-1z"></path><path fill="#008807" d="m267 197 4 2 3 4v10h5l-3 2-3 3 2 7 6 2 6 5 9 4h12l-2 2h-12l-12-6-12-1-2-3v-7l4-7-3-11z"></path><path fill="#021804" d="m264 45 6 1 19 9 4 3 20 4 9 3v4l-9-3-8-2h-18l-4-6-14-10-5-2z"></path><path fill="#E8FBE2" d="m516 162 3 1-1 6-6 10-5 1-5 2h-31v-1l21-1 16-4 6-4 1-3-4 4-8 1-9-1-3-3 16-3 8-4z"></path><path fill="#008306" d="m204 148 5 1 7 5-3 5-5 4-2-1 1-1h-8l-3-1-1-3-2-2 1-4z"></path><path fill="#00C410" d="m201 236 11 1 3 2h-9v6l6 7 8 3h8l6-3 4-6v-5l-7-2v-1h9l1 2v7l-5 9-5 3-7 1-10-3-7-6-7-12z"></path><path fill="#E8FADF" d="m260 125 6 1 3 4v8l-2 5-7 1-4-2-1-5 2-9z"></path><path fill="#011402" d="m204 72 10 1 20 5 8 5 2 2v6l-2 1-10-7-10-5-17-5-9-1v-1z"></path><path fill="#1AE70D" d="M74 220h1l2 24v9l-1 1v11l1 8-2-1-4-19-1-19v-8h2v-2h2z"></path><path fill="#00910A" d="m89 107 6 1 9 2 14 2 6 4 1 5h-10l-15-5-5-4-6-4z"></path><path fill="#00920A" d="m161 115 17 1 1 2-4 1-1 2 8 1 10 5 1 3-11-2-5-2-9-1v-2h2v-2l-11-1-10 3-3-1h2v-2z"></path><path fill="#00930B" d="M419 334v3l-9 12-7 6-10 6-5 5-13 12-3 3 2-5 5-8 11-9h2v-2l13-10 8-7z"></path><path fill="#07D10D" d="M77 246h1l4 25 8 20v2h2l4 10 2 6h-2l-8-16-5-12h-3l-3-8-2-8v-11l1-1z"></path><path fill="#06AB0D" d="M315 125h5v3l7-1 4 1-5 5 4 3-8 5-4 1-4-2-1-3 1-3h-3l2-4-1-1-2-1z"></path><path fill="#03C30D" d="M55 224h1l2 25 3 17 5 22 5 11 4 11v2h2l8 14 6 9-1 2-10-15-7-11-8-19-3-6-1-9-2-5-5-32z"></path><path fill="#008306" d="m331 217 5 1-2 13-2 3-1-5-6 1-13 6-4-1 8-5 6-8 5-4z"></path><path fill="#09CD11" d="m62 286 3 4 5 11 5 12 3 11 10 16 10 13-1 3-10-12-9-14-5-9-1-4-5-11-5-17z"></path><path fill="#FDFEFD" d="M103 85h2l4 5 4 2h13v4l-2 2-4 1-1 2h-9l-8-7-1-7z"></path><path fill="#008306" d="m166 315 2 3 2-2h3v3h3l3 7 6-2-1 5h-2l1 3h-3l-5-7 1 5 1 8-4-2-7-10-1-2v-7z"></path><path fill="#6BDA0E" d="m209 86 6 1 5 3 1 4 2 2h-3l-7-1-5-1v2l-8-1-13-2-3-3h7l3-1h11z"></path><path fill="#19E60D" d="m263 196 4 4 2 4-1 10h-2l-2 6-4-1-3-3 1-15z"></path><path fill="#008707" d="M164 136h11l8 5v2l-6 2h-18l-5-1 2-4z"></path><path fill="#9BF083" d="m179 232 4 1 8 9 12 17 2 4-1 3-6-7-7-6-8-10-4-8z"></path><path fill="#35CB0D" d="m139 73 4 1h-2v2h25v3l-3 2-10 1h-18v-2l-5-1 4-1 1-3z"></path><path fill="#01AA0A" d="m75 211 2 1v11h-1v-9l-7 2-3 7v13l3 24 4 21-1 4-4-15-6-33v-16l4-6 5-3z"></path><path fill="#9BF083" d="m337 267 1 4v8l2 10-2-2-2-5-3 14h-2l4 6-4-2-7-8-1-5 4-3h2l2-5z"></path><path fill="#00C50F" d="m449 176 8 1 14 4 31 1-1 2-7 2h-10l-6-1h-18l-9-5z"></path><path fill="#06D20E" d="m262 12 5 1 5 8 4 9 3 7 1 3-5 2 1 4-5-5-2-3-3-19v-5z"></path><path fill="#01AA0A" d="M320 253v3l-11 11-10 18-6 11-5 5-5-1 4-2 2-4 8-15 3-7 12-12z"></path><path fill="#1DA909" d="m142 242 2 1-5 15v12l3 6 10 1v1h-9l1 4-7-1-3-4v-14l3-15 2-4z"></path><path fill="#008306" d="m349 221 4 2 5 6v6l-4 5-1-2-4-2-9-1 2-5z"></path><path fill="#F4FDF1" d="m340 294 8 6 8 9 3 9-2 2-7-1-6-9-1-2 3-3-6-8z"></path><path fill="#E2F9D9" d="m177 42 4 1-17 8-19 12-12 6-5 1 4-4 18-13 12-8 2 1-7 6 11-6z"></path><path fill="#6CDA0D" d="m215 36 1 2-15 9-8 4-15 1 4-4 13-6 16-5z"></path><path fill="#08D50D" d="m443 216 5 2 3 7 1 6 3-2 4 1v14l-1 7-7 6-3 16-1-4v-8l3-9 5-2 2-13h-6l-5-15-2-2z"></path><path fill="#022204" d="M400 83h8l6 1-1 3-2 1h-12l-18 7-6 4v2h-2l-1-3-3-3 7-2 11-6z"></path><path fill="#031004" d="m169 368 4 2 6 7 2 5v3h2v-10l-2-7 3 3 1 2v12l-1 6-5 4h-2l-2-10-5-11z"></path><path fill="#6CDA0D" d="m340 84 7 1v4l4-1 6 5h-3l-7-1h-22l-14 3-12 6-9 5v-3l5-3 14-7 16-4h17z"></path><path fill="#008506" d="m166 76 1 4-4 3v4l-7 6-4-1-9-7-5-2v-1l25-2 3-1z"></path><path fill="#19D90D" d="m219 423 6 3 5 1v2l10 3 12 2 3 2-4 2h-9l-12-3v-2l-5 1-5-5z"></path><path fill="#01C50F" d="m270 206 2 3 1 5-4 7v7l1 2 12 1 12 6 9 1v1h-11l-4-1v-2l-9-1-8 4-4-3-2-10 1-7 4-6z"></path><path fill="#00920A" d="m312 128 3 1-4 5h3v6l7 1-5 5-4 3h-4v-2l-5-1 3-11 3-4z"></path><path fill="#00C410" d="m456 251 1 3-8 25-5 15-7 14h-2l8-20 5-18 2-13z"></path><path fill="#008907" d="M78 177h5v2l-21 8-4 1H30v-2l-3-1 34-2 12-2v-2z"></path><path fill="#00950A" d="m319 50 5 1 12 5 7 3v2h-5v2l3 1v2l10 3-4 1-10-3-13-7 3-1-1-3-8-3z"></path><path fill="#06CA0D" d="m194 277 6 2 3 3v6l3-1 1 5-1 3-1 5-5 7h-3l3-9h-3l1-7 1-4-2-6z"></path><path fill="#9CF084" d="m117 140 2 1-2 2 22 8 12 7-2 1-13-7-8-1-5 1-1 4-11-8 1-4z"></path><path fill="#06D20E" d="M255 435h30l-4 4-7 1h-28l-4-2 9-1z"></path><path fill="#74DE27" d="m350 113 3 1-3 2-6 2-6 3-3 1v2l4 1-12 3h-7v-3l-3-1 15-6 10-3 7-1z"></path><path fill="#008F08" d="m418 147 1 3 2 1-4 3h-3l3 3 2 4 10 5 7 8h-3l-5-2-4-2-15-11v-4l-4-1 1-1 10-2z"></path><path fill="#00C30F" d="M70 214h6l-1 4h-4l-3 6v16l4 28 3 14v8l-2-2-7-41-1-11v-13l3-7z"></path><path fill="#DCF9D0" d="m421 150 8 4 16 9 7 2-1 2-6-1-17-9h-2l8 10h-3l-8-6-6-2v-2l-3-1v-2z"></path><path fill="#009708" d="m344 46 6 1 16 8 17 9-2 4-18-10-18-8z"></path><path fill="#9BF083" d="m236 30 1 3-3 6-2 9 5 1h3l-5 3-13 2-5-1 2-4 10-8z"></path><path fill="#00BD0E" d="M414 246h2v3l-5 3v4l2 3 4 1 3-3h2l-3 12-3 5-3-1-4-11-2-7 1-5z"></path><path fill="#9BF083" d="M288 241h11l8 1 1 5-4 3-9 1-5-4v-2l-3 1z"></path><path fill="#07D50D" d="M256 317h15l3 2-1 4-3 2-13 1-3-2v-5z"></path><path fill="#07D50E" d="M446 273h1l-1 8-5 15-6 12-9 12-10 8v-3l12-13-1-4 2-2v3l5-5 6-13z"></path><path fill="#12DF0D" d="m213 243 19 1 1 4-8 3h3v2h-11l-6-8z"></path><path fill="#00C410" d="m434 223 3 4v18l-3 7-2 3h-2l1-11v-9l1-10z"></path><path fill="#008506" d="m176 224 4 1 4 5-1 2-3-3-3-1 1 6-5-1 2 6 2 2v8l-4-5-7-13v-2l4-3h5z"></path><path fill="#1AAF0A" d="M417 212h2v8l-4 6-2-1 2-4 2-5-5 1v2l-8 1-1 1h-11l-5-3v-2l-4-1v-2l18 3h9l5-2z"></path><path fill="#FDFEFD" d="m243 67 6 1 3 1 4 7-1 1-11 1-9-5v-3z"></path><path fill="#62D40C" d="m381 159 2 1-1 5h4l4 1-4 2-10 2-6 1 5-4 2-3-12 4-13 1-10-3 1-2 3 1h18z"></path><path fill="#9BF083" d="M260 92v3l-7 10-4 8-5 15-2-3-1-2v-12l4-12 2-1-3 13v2h2l2-6 8-11z"></path><path fill="#00910A" d="M229 318h5l6 5 5 5 2 1v-7h1l2 6 3 5-5 1-7-4 4 6-4-2-12-13z"></path><path fill="#00BC0E" d="m327 228 5 1v8l-4 8-3 1 1-5 1-3-2-2-10 2h-9l2-2 11-4z"></path><path fill="#008907" d="m253 129 3 3 1 10 8 1h2l2-10h1v9l-5 5-7-1 1 2 4 1 5-1-2 4h-9l-4-6-1-9z"></path><path fill="#02C90F" d="m259 231 1 4-2 8v26l13 1v1h-18l-3-3v-4h3l2-22 3-9z"></path><path fill="#00A90A" d="M293 412v3l-7 9-7 3h-24l-10-2-5-3 1-3 1 3 6 1h30l8-3z"></path><path fill="#09CC0D" d="M440 254h1l-1 12-6 20-8 17-1 3 2 1-3 3-3-1-4 4 2-5 10-19 8-20 2-13z"></path><path fill="#03B90C" d="m458 273 1 4-6 18-9 20-10 17-4 2 1-5 6-9 3-3 5-10 4-11 5-13z"></path><path fill="#00A90A" d="M141 182h8l1 6-1 3-3 2-5 1h-7l1-6 5-5z"></path><path fill="#00950A" d="m425 121 4 3-1 2-4 1-3 2 3 10 1 5 5 7-4-2-5-5-3-5-9-5 2-2 3 2-1-4h3l3 4-2-5v-3z"></path><path fill="#006C06" d="m76 94 5 1 6 5 2 1v2l13 3v1H92l-2 1 8 5-2 1-5-3h-2l-1 9-1 3-2-1 2-6-1-5-8-14z"></path><path fill="#013003" d="M236 22h3l-1 5-5 10-4 5-8 6h-4l2-4 9-10 7-10z"></path><path fill="#017307" d="M122 73h8l-3 4h-2l1 3 3 2-5 2-4 3-6 1-5-5-1 4-1-4 3-2 9-1-1-3h2z"></path><path fill="#030D04" d="m262 13 3 1 3 22 1 6-5-1-1-18-3 16h-1v-7l-2 2 2-11 2-9z"></path><path fill="#020F04" d="m417 215 1 2-4 6 1 2 2-1-2 5-7 6-5-1-1-4 3-5 6-4h2l-1-4z"></path><path fill="#030D04" d="M327 395h1l1 10-4 6-9 12-8 11-6 7-4-2 9-9 8-11 6-7 4-9 1-7z"></path><path fill="#008908" d="m415 170 6 2 10 5v3l12 6 21 8 7 2-1 3-1-2-7-1-16-6-17-8-12-8z"></path><path fill="#008206" d="m329 311 8 6 9 7 1 2-4 7-1-2 1-2-5-2-2 3-5-11v-3l-2-1z"></path><path fill="#12CA1B" d="M465 267h2l-1 9-4 15-11 24-1-3 2-9 8-18z"></path><path fill="#02A20A" d="m299 35 11 7 1 3 8 4v2l2 1 6 4v3l-4 1-8-6-7-6v-3l-4-2-5-6z"></path><path fill="#022004" d="m288 24 5 3v2l5 1-2 3 6 9 9 8 10 8 4 4h-4l-8-7-8-6-8-8-9-14z"></path><path fill="#6FDB15" d="M193 322h1v16l6 10 4 5-5-2-5-6-5-5-3-6 1-5z"></path><path fill="#21AD0A" d="m209 68 3 1h-2v2l10 1 15 4 6 3 6 8 4-1-5 6-2-1-2-7-8-5-25-6-6-1v-2z"></path><path fill="#00BA0E" d="m319 284 2 1 1 5h2l7 9 1 4 8 7 1 2-5-2-6-3-4-1-7-16z"></path><path fill="#07CD0E" d="m338 264 1 3h-2l-3 9-5 8-5 3-2 3-2-5-2-1v-12h1l1 10h2l1-6 3-6 2-1v3h-2l-1 7 6-3 6-11z"></path><path fill="#9BF083" d="m219 65 3 1-3 3 9 3 14 6 6 4 4-1 5-2-6 7-4 2-6-7v-2l-9-3-22-5v-2z"></path><path fill="#030D04" d="m135 349 5 2 11 7 10 8 6 7 5 10 1 6-3-3-7-13-9-9-18-13z"></path><path fill="#00AA0A" d="m377 332 2 1-7 8v3l9-2-4 4-12 7-5-1 1-4 9-9 5-4z"></path><path fill="#04C30D" d="m269 285 7 1-1 5-5 1h-8l-5 1h-9l2-4 4-2h8l2 1 2-2h2z"></path><path fill="#00BB0E" d="M90 281h2l6 10 6 14 4 6 5 10-1 2-6-7v-3h-2l-9-17-5-13z"></path><path fill="#01B10B" d="m361 258 5 5-1 4-3-1-1 8-2 3h-2l-1 3-1-7v-12z"></path><path fill="#00C00E" d="m187 162 1 2 8-1h6v2h-2l-1 3-3 2h-17l-9-1v-1h11l1-3z"></path><path fill="#F5FDF3" d="m286 66 4 1-10 13-5-1-2-5-2-1 1-2 10-4z"></path><path fill="#04A90A" d="m353 113 13 1 4 1v3l7 5-2 1-3-1v-2l-3 1 2 1v2l-10-3-4-2 1-2 2-2h-10z"></path><path fill="#D8F9CE" d="m430 113 5 1 9 17-1 3h-2l-1-2h-3l-8-15z"></path><path fill="#FCFEFA" d="M306 66h10l11 5v2h-17l-8 1-2-3 4-3h2z"></path><path fill="#00A80A" d="m78 298 4 5 6 9 5 5v2l5 2 6 9 5 10 2 7-5-1 3-1-4-7-11-16-5-5-8-10-3-6z"></path><path fill="#00930B" d="m68 212 3 1-6 4-2 4v16l6 33v5l-2-4-6-29-2-11v-8l4-8z"></path><path fill="#008506" d="M302 399h2l-3 9-3 6-2 5-7 6-5 1 6-8 4-6v-5z"></path><path fill="#00C410" d="m95 342 3 1 1 4h3v-3h4v2l4 2 4 5v3l-7-2 6 7-1 2-11-11-6-9z"></path><path fill="#022904" d="m306 79 4 1h-2v2l-14 7-7 7-1 4h-2l-2-4v-4l7-4 2-3 4-2 1-2 5-1z"></path><path fill="#01AA0A" d="m82 221 4 2 1 12 2 2v8h-1v-7l-5-1v13l2 10-1 4-2-6-1-7v-27z"></path><path fill="#01B40C" d="M468 202h1v14h-1l-1-11h-2v43l-4 21h-1l1-12 1-8 2-45z"></path><path fill="#96ED77" d="m323 150 8 1 6 2h18l8-1-2 2-13 4h-9l-13-4-2 1z"></path><path fill="#9BF083" d="m158 109 3 4h14l5 1v1l-19 1-11 4h-2v2l-5 2 1-4 5-5z"></path><path fill="#00A90A" d="m341 234 8 1 5 3-1 5-5 5-3-2 1-6-7 1-2-4z"></path><path fill="#008306" d="M188 223h6l13 8 2 4h-2v-2l-9-2-3-1 1 7 1 4-4-4-5-11z"></path><path fill="#33DE1E" d="m160 57 1 4-10 7-3 3-13 5-1 2-7 2-1-2 12-6h2v-2l4-2 5-5z"></path><path fill="#009A0A" d="m236 20 2 2h-2l-2 5-4 6-1-3-9 3-15 4-5 1-1-3 19-6 15-4z"></path><path fill="#03CA0E" d="m113 323 6 5v2l4 2 9 7 10 8 9 6 2 3-5-2-5-3-4-1v-2l-4-1-1-2-3-1-17-17z"></path><path fill="#FEFFFE" d="M2000 117h15v4h-6v15h-4v-15h-5z"></path><path fill="#6CDA0D" d="m53 238 2 2 6 38v5l-3-4-4-17-1-10z"></path><path fill="#A1F08A" d="m438 67 2 1-13 8-9 4h-2l1 2v6l-2 2h-11v-1l10-2 1-4-1-1-14-2 1-3h18l16-8z"></path><path fill="#008406" d="M255 272h8l6 1-3 4 2 1v2l4 1-4 2-4 6-5-2 2-5v-4l-6-4z"></path><path fill="#010301" d="m434 185 5 1 14 6v2l7 2-3 3-9-2-11-7-3-3z"></path><path fill="#0BD80D" d="m399 372 2 1-4 4h-2l-2 4-16 13-3 3-3 5-3-1v-5l4-5v2l5-3 6-5 14-11z"></path><path fill="#008706" d="M179 88h3l-1 5 19 1 4 2h-25l-11 4-6-1 1-5 1 2h7v-2z"></path><path fill="#00C20F" d="m380 180 7 2 2 3v6l-1 1h-6l-6-4 1-5z"></path><path fill="#00C40F" d="m128 150 10 2 13 7-1 3-5-1-8-5-2-3-4-1v3l-3 1 2 4-5-1-2-2v-5z"></path><path fill="#00930B" d="M354 136h7l5 3 1 2-3 2-8 1-9-1v-3z"></path><path fill="#022A04" d="M129 81h6l-4 1 2 4-14 5-8-1-2-2v-5l4 2 1 2 6-1 5-4z"></path><path fill="#07D50D" d="M106 327h3l-1 7h2l6 9 9 10 12 9 6 4-3 1-10-5-14-15-9-12z"></path><path fill="#00A40A" d="m118 207 7 1v2l2 2-10 2-7 2 8 6 10 6-1 2-14-8-7-6-1-4 2 1h6z"></path><path fill="#01AA0A" d="m218 48 2 1-2 4 13-1 9-3 4 1v2l-6 1h-6v2l-16 4h-5l2-5z"></path><path fill="#03AD0C" d="M148 285h8v5l9-3-4 4-6 2-7 1h-9l-7-3 1-2 4 2h10z"></path><path fill="#030D04" d="M157 243h7l6 8 1 5-5-5-4-1-2 1-1 15h-1l-1-9-1-7-1-5z"></path><path fill="#00B20C" d="m128 201 14 1v2l6 2-1 5-4 2h-16v-1l6-1 1-2h9l-4-3-11-4z"></path><path fill="#050A04" d="m327 381 2 4 5 2 5 3-1 5-7 5-2-4z"></path><path fill="#9AEF82" d="m516 162 3 1-1 6-6 10-5 1-5 2h-31v-1l21-1 16-4 6-4 2-4v-3l-2-1z"></path><path fill="#039708" d="m260 13 2 1-4 17-5 13-8 9-12 3-4-1h3v-2l12-1 1-3 5-5 5-12 4-18z"></path><path fill="#DBF9CF" d="m411 198 6 2 2 5-3-2v-2l-13 1-4 1 1 6h-5l-4-2 1-4 4-1v-2l3-1z"></path><path fill="#030D04" d="m123 365 11 6 5 3 1 2v6l-7-4-9-8z"></path><path fill="#0AC60F" d="m310 349 2 2 2 14 4 14 5 5 1 5-9-9-4-13h-1l-1-9h-2l1-5z"></path><path fill="#030D04" d="m252 272 6 3 4 3-1 7-3 1-8-7-1-4z"></path><path fill="#9BF083" d="m299 196 8 1 2 2-6 4-8 2h-6v-3z"></path><path fill="#02A80B" d="m66 187 2 1v2l2 2-16 6h-4l-1 2-11-2v-1l14-1 3-2 2-4z"></path><path fill="#00C30F" d="m277 261 3 1 4 8-2 5-8 7-7 3 1-3 7-4 1-2h2v-6l-3-1 1-7z"></path><path fill="#18E50D" d="M264 230h2l4 15 2 12 3 10-4 2-3-12-2-18z"></path><path fill="#03C40D" d="m343 124 3 1-2 4-12 6-8-1 5-5 4-3 9 1z"></path><path fill="#07D50D" d="m273 126 6 1 4 4v2h2l-1 5-2 4h-2l-2-9-4-1-2 4-1-2z"></path><path fill="#02BB0C" d="m74 87 3 1 5 6 10 6 7 2 18 1v1H91l-2-1v-2l-5-2-4-4-5-1-3-4v-2z"></path><path fill="#9BF083" d="m262 240 3 3 1 3v13l-2 4-3-1v-19z"></path><path fill="#009109" d="M359 318h1v11l-7 12-4 5-3 1 2-6 6-11 1-9 2 3 1 3z"></path><path fill="#030D04" d="m64 272 2 3 7 20 7 15 1 5-4-4-6-13-5-13-2-8z"></path><path fill="#09C611" d="m469 203 2 4 1 20h-2l-1-6h-3l-1 3v-19h2l1 4z"></path><path fill="#08CE0E" d="m347 199 6 1 5 4h-3v10l-5-5-5-2 1-4z"></path><path fill="#008707" d="M68 155h2l-3 12h5l-3 2-8 2h-5l2-4 4-9 2 4z"></path><path fill="#00A50A" d="m139 350 5 1 7 4v2h2v2l6 2 2 1-5-7 1-2 8 6-2 1 2 7-5-3-5-2-10-7-6-4z"></path><path fill="#4AD011" d="M176 202v5l-2 6-5 5-4 3h-2l-1-5z"></path><path fill="#AFF29B" d="M139 76h27v2l-3 1-16 1h-11l1-3z"></path><path fill="#05CE0E" d="m102 316 4 5 2 5 4 2 3 4v2l4 2 8 8-2 1-6-5-7-8-1-3-7-2-5-7z"></path><path fill="#030D04" d="M427 245h1l-1 10-4 18-4 10h-3l7-25z"></path><path fill="#03A40A" d="M321 356v3l-3 7 4 8 5 7v11l-4 5-2-1v-2l-3 1v-5l4 3v-5l3 1-1-8-8-12 1-7z"></path><path fill="#023405" d="m337 326 6 3-2 6-12 16-6 4 2-4 9-12 2-4z"></path><path fill="#0CCD16" d="m19 183 27 1v1l-16 1v4h-9l-4-2-3-2v-2l5 1z"></path><path fill="#A9F193" d="m79 66 11 6 12 5 8 1 1-1h7l1 3-9 2-11-3-14-7-6-4z"></path><path fill="#022104" d="M325 252h2l-6 15-1 5h-2v10l-1-2h-2l1-11 5-13z"></path><path fill="#00B50D" d="M315 93h13l4 3-15 3-2 1h-6l2-3-3-2z"></path><path fill="#16E30D" d="M220 32h7l-1 3-13 8-4 3-5 1 1-2 3-1-1-2 7-4h-5v-2l11-2z"></path><path fill="#01AA0A" d="m448 213 3 3 7 1 2 7v19h-1v-17h-5l-4-6z"></path><path fill="#00BC0D" d="M89 246h1l3 17 6 21 5 12 2 6-3-3-7-14-5-19-2-11z"></path><path fill="#00C410" d="m337 261 1 3-7 13-6 2 1-7h2l1-4 5-4z"></path><path fill="#01AA0A" d="m209 413 5 3 4 5 2 2 1 7 2 3-4-2-5-5-5-10z"></path><path fill="#02A70A" d="m379 348 2 1-9 10-2 3-5 2-3 2-3 6-2 1-2 5h-2l2-6 7-9 10-9z"></path><path fill="#008F07" d="m374 210 5 1 4 2 1 2 3 1v2l5 2h11l1-1h5l-4 3-5 1h-8l-6-3-11-7z"></path><path fill="#008306" d="M375 176h10l1 2h-8l-6 2v5l4 5 2 1 11 1v1h-13l-6-4-3-5 1-5z"></path><path fill="#09BD0D" d="m379 207 16 1 12 3 1 4-19-4-10-3z"></path><path fill="#013B05" d="m102 145 1 2 4 2-10 4-11 7-9 6h-2l1-3 18-12z"></path><path fill="#030D04" d="M207 396h1l1 5 3-3 4 1-2 1 2 9v5l-4-2-4-6-1-3z"></path><path fill="#04CD0F" d="M192 322v3l-5 5 1 6 4 7 5 5 8 6-3 1-4-2-5-5v-2h-2l-8-12-1-4 5-3z"></path><path fill="#009A0A" d="M78 177h5v2l-21 8-7 1v-3l-2-1 17-3h3v-2z"></path><path fill="#00930B" d="m82 212 4 4 1 4 1 16-2-1-1-12-3-2-1 22h-1v-21l1-9z"></path><path fill="#01C40F" d="m161 258 5 1 4 4v3h2l1 2v9h-1l-1-5-3-1-1-6-7 1z"></path><path fill="#9BF083" d="m8 167 22 4h21l5-1 5 1v1l-14 2H35l-27-5z"></path><path fill="#00C30F" d="m300 51 5 1 6 3h3v3h-2v2l-10-1-3-1v-2h2z"></path><path fill="#00920A" d="M165 379h1l1 9-2 9-9 9-2 1-3-3v-3h5l6-7 2-4z"></path><path fill="#1DC724" d="m161 354 4 1 6 4 5 3 3 7-2 1-3-1-5-6-6-5z"></path><path fill="#F7FDF1" d="M339 246h2l-1 5-9 8-3-1 1-5 5-5z"></path><path fill="#02AE0A" d="m208 221 3 1 4 4 8 3h7l3-3h3l-2 4-4 2h-12l-5-2z"></path><path fill="#99EF7E" d="m187 156 2 1-1 5-6 4-1 2h-14v-2h9l3-2-1-3z"></path><path fill="#7FE33F" d="m212 124 5 2 13 11 4 2-1-2v-6l2 4v8l-2 2-6-7-11-9-4-4z"></path><path fill="#039708" d="M138 68h2v4l-13 7 8 1v1h-9l-1-4 3-3-3-1 10-4z"></path><path fill="#05B60F" d="m484 190 9 2 1 2-14 3h-8l-1-3 1-2 5 2 3 1 2-4z"></path><path fill="#12A209" d="m239 99 1 3-5 9-2 1-6-4-1-3-4-3 9 1 5 2z"></path><path fill="#03CC0F" d="m395 345 2 1-4 5-13 10-8 7-4 3 1-4 4-5 6-4 5-4 9-7z"></path><path fill="#008E09" d="m311 168 4 2 8 9 5 10 3 7-1 3-6-10-7-14z"></path><path fill="#013704" d="m439 101 1 4-5 6h-2v2h-3l1 6 3 6-1 4-6-11v-6l10-9z"></path><path fill="#02BA0C" d="M225 30h4l-1 5-13 12h-6v-2l10-7 7-4 1-2-3-1z"></path><path fill="#01AA0A" d="m297 429 4 1-1 6-7 5-6 2-4-1 10-5 2-5-4-1z"></path><path fill="#009007" d="m210 424 9 6 2 2 16 6 3 2h-10l-10-5-10-9z"></path><path fill="#6CDA0D" d="M186 82h19l3 1v2l-14 1-9 2 2-3-4-2z"></path><path fill="#66D912" d="m417 159 6 1 8 6 5 2v3l9 6-3 1-8-5-5-5v-2l-5-1-7-5z"></path><path fill="#00A809" d="m327 306 6 1 6 4 4 1 5 5-1 2-7-5-4 1-8-4z"></path><path fill="#33AA34" d="M302 217h7l1 4-1 2h-5l-1-2-3 1v3h3v2l-6-1-2-1v-3h2v-2z"></path><path fill="#9BF083" d="m438 132 4 5 10 21 2-1 2 7-4-1-6-10-5-12-3-6z"></path><path fill="#008306" d="m205 132 5 1 4 6-1 5-6-4-7-5 3-2zM416 125l2 1 1 4 1 5-6-5v4l-4-1 2 2 7 4 2 4-14-8-2-2z"></path><path fill="#030D04" d="m253 308 20 1-2 4h-13z"></path><path fill="#04CD0E" d="M55 224h1l2 25 2 11v12h-1l-5-32z"></path><path fill="#06A40B" d="m327 157 11 6 4 1v2l16 3v1h-14l-13-7-4-4z"></path><path fill="#00950A" d="M78 146h1v14l-2 2-4-1v-8l2-5z"></path><path fill="#02A70B" d="m357 399 3 1 1 2v8l-2 2 1 4-4-4-4-7 1-2 2 2z"></path><path fill="#01BB0D" d="m82 272 2 3 6 16v2h2l4 10 2 6h-2l-8-16-5-12z"></path><path fill="#07D50D" d="M446 273h1l-1 8-5 15-5 10-3 1 2-5 5-11z"></path><path fill="#030D04" d="m346 217 5 1 5 5 3 5v6h-1l-2-7-5-5-4 2-4 5v-6z"></path><path fill="#9BF083" d="m259 12 3 1-2 1-3 9-9 17-6 8-2-1 7-10 11-24z"></path><path fill="#0DD413" d="m450 310 1 2-4 10-5 5-7 10-5 5 2-5 4-6 4-5 8-13z"></path><path fill="#008A07" d="M396 81h18l2 2-1 4-3 2h-8v-1l9-2 1-2h-14l-9 3-4-1 8-3z"></path><path fill="#0DDB0D" d="M352 61h6l8 4 9 3v1l-16-1-7-5z"></path><path fill="#07CC0E" d="M215 33h5l-3 2-8 1v2l-17 6h-6l4-3 7-3z"></path><path fill="#01AF0A" d="m205 263 2 2v4h-3l4 12v14l-2 2-1-4 1-5-1-10-3-6-1-8 3 1z"></path><path fill="#01AA0A" d="m432 214 4 2 2 6v23h-1l-1-18-2-3-2 1z"></path><path fill="#1ABD0C" d="m185 194 1 3-4 6-3 2-2 4-3-1 5-10-9 1v-2l11-1z"></path><path fill="#021603" d="m387 87 2 1-3 5-10 5-1 3h-2l-1-3-3-3 7-2z"></path><path fill="#02C80F" d="m346 59 6 1v3l4 2 3 2 18 2v1h-19l-6-3-4-5-2-1z"></path><path fill="#9BF083" d="m180 245 4 2 5 4 5 7-3 1-5-2-3-3z"></path><path fill="#008306" d="M367 83h9l6 1-4 3-9 1-1 3-5-6z"></path><path fill="#020C03" d="m407 154 3 1v4l11 8 1 2-7-2-6-3h-6z"></path><path fill="#6CDA0D" d="M319 90h6v2l-14 3-12 6-9 5v-3l5-3 14-7z"></path><path fill="#008607" d="M297 427h8l-1 5-2 4h-2v-6l-18 4h-5l1-2 14-3z"></path><path fill="#048609" d="m314 426 2 2 4-1-4 5-11 8-3 1 2-4z"></path><path fill="#6CDA0D" d="m62 286 3 4 5 11 5 12-1 2-5-8-4-8-3-10z"></path><path fill="#030D04" d="m88 110 4 1-1 6 13 6 11 3-4 1-16-5-5-1-4 4 2-8z"></path><path fill="#00920A" d="m359 256 8 1 1 13-2-1-2-7-3-3-5 2v12l-2 3v-16l3-3z"></path><path fill="#07D50E" d="m433 236 3 1v7l-3 10-3 1 2-18z"></path><path fill="#41C22D" d="m215 216 7 1 5 3-1 3v-2l-5-1v5l-4-1v-2l-4-1v-4z"></path><path fill="#00C10F" d="M143 184h2l1 6-5 4h-7l2-4z"></path><path fill="#04CC0E" d="m413 154 4 3 2 4 10 5 7 8h-3l-4-2-5-5-7-4-5-6z"></path><path fill="#0CD50E" d="m310 43 6 2 16 8 14 5v1l-8-1-13-5-15-8z"></path><path fill="#030D04" d="m200 409 3 4 6 10 8 9 10 6-3 1-10-7-8-8-6-11z"></path><path fill="#16E40D" d="M223 242h11l2 1-1 7-3 2h-7l-4-2 11-2v-3l-11-1z"></path><path fill="#053F06" d="M380 198h7l1 1 10-1h13v1l-12 1-10 2h-15v-1h5z"></path><path fill="#008908" d="M284 148h2l5 6 17 10 3 4-5-2-14-8-9-7z"></path><path fill="#014B06" d="m383 65 6 2 3 2 1-2 4 4 1 6-4-1-4-4-3-2-5-1z"></path><path fill="#008F09" d="m195 152 3 4v2l9-1 7-2-1 4-5 4-2-1 1-1h-8l-3-1-1-3-2-2z"></path><path fill="#F7FDF1" d="M375 75h13l6 2v1l-27 1v-2z"></path><path fill="#07C514" d="m388 384 2 2-10 10-5 4-2 2v-5l3-1 2-4z"></path><path fill="#0AC817" d="m444 323 1 2-7 12-10 12-3-1 3-3 1-3 5-5 7-10z"></path><path fill="#03AA0B" d="M137 270h2l3 6 10 1v1h-9l1 4-7-1-1-8z"></path><path fill="#01AA0A" d="m197 233 10 1 4 3h-10l2 6 4 6-1 2-8-11z"></path><path fill="#9BF083" d="m215 350 2 2 1 8-2 4-7-6-5-5 12 3z"></path><path fill="#009508" d="m267 197 4 2 3 4v10h5l-3 2-5 2 1-5-5-13z"></path><path fill="#009B09" d="m314 340 1 2-7 13 1 2 1 1v9l-2-4h-2l-2 2v-7l9-17z"></path><path fill="#06D40E" d="M457 245h1v6l-7 6-3 16-1-4v-8l3-9 5-2z"></path><path fill="#00A50A" d="m238 236 5 3v8h-2l-1-9-9 1h-16l-3-2h11z"></path><path fill="#01A40A" d="m357 200 6 2 12 7-2 3-17-9z"></path><path fill="#07D50E" d="m317 190 8 10v8h-5l-1-2h2l-4-13z"></path><path fill="#030D04" d="m385 83 1 2-15 8-2 2-4-5 1-2 2 2 1-2 11-3z"></path><path fill="#9BF083" d="M310 72h18l9 5v1h-12l4-2-4-1-21-1v-1z"></path><path fill="#6CDA0D" d="M262 300h5l3 3v3l-8 1-4-2z"></path><path fill="#9BF083" d="m192 277 4 2 3 3 1 7-2 5-2-4-3-8-2-1z"></path><path fill="#00950A" d="M154 202h3l-2 7-7 6-2-1 2-7z"></path><path fill="#02C80F" d="M84 177h3v2l-21 9-8 1v-2l18-6z"></path><path fill="#07D50E" d="M256 102h2v3l-2 2-3 6-2 19-2 3v-13l1-1 1-10 4-8z"></path><path fill="#6CDA0D" d="m223 96 5 1 10 5-2 4-12-5z"></path><path fill="#013F05" d="m288 24 5 3v2l5 1-2 3 3 5-1 4-9-13z"></path><path fill="#00B50D" d="m262 12 5 1 4 12v8l-1 5h-1l-3-19v-5z"></path><path fill="#9BF083" d="M192 327h1l1 11 6 10 4 5-5-2-6-7-2-6z"></path><path fill="#17E30D" d="m116 318 3 1 7 8v2l-5 2-4-4v-7z"></path><path fill="#0EBE17" d="m60 291 5 5 5 15 4 8-2 1-11-23z"></path><path fill="#9BF083" d="m362 266 4 1 4 7-4 1-1 2-4-2v-7z"></path><path fill="#00BE0E" d="m83 232 3 4 3 1v8h-1v-7l-5-1v13l2 10-1 4-2-6-1-7v-14z"></path><path fill="#06B80B" d="m311 205 6 2v1h-16l-16 4h-3v-2l13-4z"></path><path fill="#9BF083" d="M175 82v3h1l3-1-2 4-5 5-6 1 1-4z"></path><path fill="#020C03" d="m342 71 9 2 8 1 7-2h7l-3 2h-3v2l-6 2v-2h-8l-11-4z"></path><path fill="#028D0A" d="m236 20 2 2h-2l-2 5-4 6-1-3-4 1h-8l1-2 15-4z"></path><path fill="#08CD12" d="m123 380 5 2 15 12 7 4 1-2v3l-3 1-17-12-8-7z"></path><path fill="#030D04" d="m365 243 4 2 1 2v10h-1v-9l-7 2-5 1 2-4z"></path><path fill="#00920A" d="M343 232h13v6l-2 2-1-2-4-2-7-2z"></path><path fill="#00A00A" d="m256 199 1 3-2 6v9l-1-2h-2l-1-3-2 2h-6v-1l6-2 5-10z"></path><path fill="#012903" d="m431 153 5 2 8 5 7 3v1h-6l-16-9z"></path><path fill="#030D04" d="m203 252 3 3 7 16-1 4-2 1-4-11-1-7z"></path><path fill="#008306" d="M159 138h2l1 3 10 2-2 2h-11l-5-1 2-4z"></path><path fill="#021603" d="M236 22h3l-1 5h-2l-2 6-5 3-7 7v-3l7-7z"></path><path fill="#0DD50D" d="m194 277 6 2 3 3 1 7-1 2-5 2 1-6-2-6z"></path><path fill="#0AA90B" d="M288 228h19l-1 3-3 1h-7l-8-3z"></path><path fill="#021104" d="m301 220 3 1v2h5v-2h2l-1 4-6 3h-7v-3l6 2v-2h-3l-1-3z"></path><path fill="#76DE26" d="m342 164 4 1h21v2l-9 2-11-1-5-2z"></path><path fill="#00A30A" d="M158 54h8l-1 2-7 3-10 6h-3l3-4 5-4z"></path><path fill="#00980A" d="M293 412v3l-7 9-7 3h-13v-1l16-2v-2l6-4z"></path><path fill="#009208" d="m182 333 5 5 4 6v2h2v2l4 2 2 5 3 4-1 2-3-3-7-10-9-13z"></path><path fill="#030D04" d="M271 272h5l-1 5-3 3h-4v-2l-3-1 4-4z"></path><path fill="#02C70E" d="m128 150 5 1-2 1v3l-3 1 2 4-5-1-2-2v-5z"></path><path fill="#009009" d="M220 41v3l-9 8-4 1 1-2-6 1v-3l9-3 5-1z"></path><path fill="#C8F6B9" d="m234 18 3 1-4 7-10 2 1-3 7-3-4-2z"></path><path fill="#01AF0B" d="m128 347 5 2 2 2 5 2 11 8v3l2 1-4-1-4-5-8-4-9-7z"></path><path fill="#00930B" d="m276 312 5 1-1 10-3 7-1-2 1-2v-8l-5-4z"></path><path fill="#019E0A" d="m330 300 5 2 15 15h-3l-8-7-5-4v-2l-4-2z"></path><path fill="#030D04" d="M454 278h1l-1 8-8 19-2 1 3-10z"></path><path fill="#27D20E" d="M135 257h2v23l-3-3v-14z"></path><path fill="#00930B" d="m460 224 3 1v24h-1l-1-8h-1z"></path><path fill="#C4F5B4" d="m223 407 10 4 4 2v2h2v2l-5-1-7-3-4-4z"></path><path fill="#009A08" d="M271 270h7v6h-2l-2 4-2-1 3-4 1-3-5 1-16-1v-1z"></path><path fill="#02BF0D" d="m79 175 3 1-9 3v2l-12 3H51v-1l18-4z"></path><path fill="#030D04" d="m438 316 1 2-7 11-10 12-1-2 9-12z"></path><path fill="#009D09" d="M416 313v3l-5 5-15 16h-3l10-10 7-8 5-5z"></path><path fill="#9BF083" d="m269 285 7 1-1 5-5 1-5-2z"></path><path fill="#00A00A" d="m388 273 4 1-4 5-6 2h-5l-2-3 2-3h2v4l5-2z"></path><path fill="#6CDA0D" d="M219 245h9l3 2-2 3h-8l-3-2z"></path><path fill="#01A30A" d="m366 198 5 2 3 1h18l-4 3-2 1h-7l-11-4z"></path><path fill="#008F09" d="m415 170 6 2 10 5-1 3-5-1-8-5z"></path><path fill="#1AE70D" d="M256 436h10l6 1-1 2h-24v-1l8-1z"></path><path fill="#00C410" d="m158 370 4 4v7l-5-1-5-5 1-2 6 2z"></path><path fill="#022305" d="m145 213 2 1-7 8-3-2-2-1 3-5z"></path><path fill="#009209" d="m449 176 8 1 5 3-1 3-6-1-4-2z"></path><path fill="#D8F8CC" d="m177 42 4 1-17 8-11 7v-3l17-10z"></path><path fill="#008707" d="m341 333 2 4-9 10-5 6v-3z"></path><path fill="#01AA0A" d="M256 234h1l-1 8-2 22-2 1-2-1-1 4v-5h3l2-22z"></path><path fill="#00BB0E" d="M163 138h11l2 3-1 1h-10l-4-1v-2z"></path><path fill="#9BF083" d="M256 131h1l1 7 6 1v3l3-1v2l-7 1-4-2-1-5z"></path><path fill="#01B90D" d="M368 81h17l-2 2-16 1-5 1-2-3z"></path><path fill="#7FE33E" d="m255 79 2 1-9 8-5-5-2-3 10 2z"></path><path fill="#008306" d="M308 61h8l3 1h3l11 7-2 1-15-6-8-2z"></path><path fill="#00C20F" d="m310 349 2 2 1 14-3 2-1-9h-2l1-5z"></path><path fill="#0EC517" d="M465 267h2l-1 9-3 11-3 1 2-10z"></path><path fill="#97EE79" d="M418 206h2l-1 6-5 4-4 1h-9v-1l7-1-1-4 6 2 4-3z"></path><path fill="#33D236" d="m319 394 4 1 1 7-4 4-2-1z"></path><path fill="#00930B" d="m359 349 2 3 4 2-8 5-3-1 2-5z"></path><path fill="#009B0A" d="m166 315 2 3 2-2h3v3l2 1h-3l-1 4-4 1-1-2z"></path><path fill="#09D00D" d="m426 298 1 3-2 5 2 1-3 3-3-1-4 4 2-5 5-9z"></path><path fill="#009B09" d="m174 231 2 2h-3l2 6 2 2v8l-4-5-2-3 1-9z"></path><path fill="#07BF13" d="m118 207 7 1v2l2 2-13 2 2-5z"></path><path fill="#01B30C" d="m435 169 16 6v3l-2 1-7-3-8-5z"></path><path fill="#07D50E" d="m429 132 4 2 3 7-1 3-5-4-2-3z"></path><path fill="#008C07" d="M327 384h1l1 5v7h-2l-1 7-3 3-2-1 2-3 1-7 2-3z"></path><path fill="#03C80E" d="M431 333v3l-10 12-6 4 2-4 5-6h2l2-5z"></path><path fill="#C2F5B1" d="m355 309 3 4 1 5-2 2-7-1-1-3h3v-2h3z"></path><path fill="#01B10B" d="m267 300 6 2 7 1-1 3-2 1h-10l3-1z"></path><path fill="#00A60A" d="m409 257 2 3 3 7h3l2-2-1 5-2 4-3-1-4-11z"></path><path fill="#00C40F" d="M254 263h1v6l16 1v1h-18l-3-3v-4z"></path><path fill="#11C30C" d="m147 231 3 1-2 5-4 5-5 2 6-11z"></path><path fill="#9BF083" d="m380 183 5 1 3 2v4h-6l-3-3z"></path><path fill="#11B819" d="M62 158h1l2 9-6 4h-3l2-4z"></path><path fill="#01AA0A" d="m425 121 4 3-1 2-4 1-3 2-1 4-3-4v-3z"></path><path fill="#08C312" d="m74 87 3 1 5 6 6 4-4 1-4-4-5-1-3-4v-2z"></path><path fill="#DFF9D4" d="m346 81 7 2 6 5-1 4-11-8z"></path><path fill="#01AF0A" d="M162 198h3v2l2 1-11 7 1-6z"></path><path fill="#02B70C" d="m146 72 2 1 15 2v1h-22v-2z"></path><path fill="#B1F39D" d="m285 19 8 1 4 2-7-1 4 5 3 2-6-1-2-2-2 2z"></path><path fill="#008D07" d="m139 350 5 1 7 4v2h2v2l4 1 1 3-4-2-15-10z"></path><path fill="#00B30C" d="m177 228 4 1 5 5 2 4-6-5-3-1 1 7-4-4z"></path><path fill="#01BA0D" d="m19 183 27 1v1l-16 1-4 1-7-2z"></path><path fill="#6CDA0D" d="M191 165h3v2l-5 2-10 1-9-1v-1h11l1-2z"></path><path fill="#F7FDF1" d="M395 154h6l-2 4-7 4h-2l1-4z"></path><path fill="#008207" d="m418 147 1 3 2 1-4 3-4 1-2 3 2 3-4-2v-4l-4-1 1-1 10-2z"></path><path fill="#008607" d="m425 119 4 1 5 9v2h-2l-6-9-8 4 1-3z"></path><path fill="#E2FAD8" d="m314 66 9 3 4 2v2h-10l-1-2 1-2h-2z"></path><path fill="#020C03" d="m324 62 5 2 10 5-2 1v2l-6-1 1-2-8-5z"></path><path fill="#EEFBE7" d="m61 54 3 1 1 6 8 12-1 2-9-11-2-5z"></path><path fill="#07D20E" d="m206 43 3 1-3 2 3 1-10 4h-6l5-4z"></path><path fill="#008606" d="m161 196 1 3-4 3-5 2-3 3-6-2-2-2 8 1 9-7z"></path><path fill="#00930A" d="M140 180h10l2 6-1 5h-2v-9l-8 1-3 2zM179 88h3l-1 5 2 1-9 2-3-2z"></path><path fill="#FAFEF8" d="M266 74h4l2 3v3l-7 1-3-1z"></path><path fill="#009F0B" d="m219 405 4 2 5 6 5 4-4-1-7-3-3-5z"></path><path fill="#0DD40E" d="m60 273 2 4 1 7 1 12-3-3-1-6-2-5 1-3 1 2z"></path><path fill="#00A709" d="m327 228 5 1v8l-4-6-10 4-3-1z"></path><path fill="#030D04" d="m175 221 5 2-1 2-3-1-1 3h-5l-5 3 2-4 4-3z"></path><path fill="#2BCE0E" d="m383 213 18 3-2 2h-9l-7-3z"></path><path fill="#008B08" d="M269 133h1v9l-5 5h-8v-2l10-2z"></path><path fill="#04AA0C" d="m326 413 1 3-2 7-4 1-2-2 3-6z"></path><path fill="#011603" d="m337 326 6 3-2 6-4 2z"></path><path fill="#00A90A" d="m268 219 1 2v7l1 2 12 1 2 2h-7l-6 1-3-2-1-3v-9z"></path><path fill="#21C80E" d="M373 164h4l-2 4-5 2v3l-10 1 2-2h4v-2l6-3-2-2z"></path><path fill="#1AE70D" d="m371 391 1 3h3l-2 6-3 2-2-1v-5z"></path><path fill="#07CF0E" d="m95 342 3 1 4 6 11 12-1 2-11-11-6-9z"></path><path fill="#030D04" d="m115 156 5 5 2 4-4 2-6-2 4-4z"></path><path fill="#03B30B" d="m262 93 3 2v2l-3 3-4 10-1-4v-6z"></path><path fill="#008306" d="M263 21h1v20h-1v-6h-2l-1 3 1-7z"></path><path fill="#008D07" d="m352 378 1 4-3 7 2 14-3-4-2-5 2-10z"></path><path fill="#06D20E" d="m151 365 4 1 3 3 1 6h-5l-4-4 5-1z"></path><path fill="#008807" d="m384 339 3 1-12 10-4 3-2-1v-2l11-7z"></path><path fill="#07C90D" d="M440 254h1l-1 12-4 14h-1v-7l3-9z"></path><path fill="#009C09" d="M161 257h6l3 2 2 5 2 1v10h-1l-1-9h-2l-3-5-6-3z"></path><path fill="#00930B" d="m195 230 9 2 3 2-10-1 2 9-3-3-2-7z"></path><path fill="#00B70D" d="m255 217 2 1v2h2l1 3v8l-3 3-1-13z"></path><path fill="#00930A" d="m447 211 11 2 1 5-8-1-4-4z"></path><path fill="#6CDA0D" d="m261 207 3 1v2h-2l3 3-1 4h-3l-2-2 1-7z"></path><path fill="#01BF0D" d="m110 153 1 2-2 5-4 3h-2v2l-6 2 5-5z"></path><path fill="#00930A" d="M306 96h6l-2 3 2 2-6 3h-3l2-4 1-1-2-2z"></path><path fill="#0BCB0F" d="M181 84h7l-4 7 10 2v1h-11l-1-3 2-5h-3z"></path><path fill="#08CC0D" d="m302 34 7 1 20 7-4 1-10-3-13-5z"></path><path fill="#03CA0E" d="m212 417 5 2 3 4 1 6-4-2-5-8z"></path><path fill="#06CB0D" d="M386 377h2l-2 4-12 9h-3l7-7z"></path><path fill="#01AA0B" d="m437 320 1 2-2 7-5 5-1-4z"></path><path fill="#008B07" d="m326 245 1 2-7 13-2-1 4-9z"></path><path fill="#86E64F" d="M176 202v5l-1 3-4 1-4 4-3-1z"></path><path fill="#13D01A" d="m472 192 5 2 3 1 1-3 1 2h2v2l-4 1h-8l-1-3z"></path><path fill="#022804" d="m102 145 1 2 4 2-10 4-5 1 5-5z"></path><path fill="#008306" d="m376 127 2 1 2 2h6l-2 5-3 1-3-1 1-4-5-2z"></path><path fill="#09390B" d="m439 101 1 4-5 6h-2v2l-3-1 3-5z"></path><path fill="#008906" d="m379 88 4 2-8 5h-5l1-3z"></path><path fill="#6CDA0D" d="M159 59h2l-2 4-9 5-3-1 5-4z"></path><path fill="#008707" d="m374 334 2 1-15 14-4 1 5-6 11-9z"></path><path fill="#008D08" d="m177 324 3 2 5-2-1 5h-2l1 3h-3l-3-4z"></path><path fill="#01AA0A" d="M256 315h19l3 3v8l-2-1-1-8-19-1z"></path><path fill="#0AD60D" d="M357 195h5l2 2h2v2h-5l1 3-5-2-3-4z"></path><path fill="#D2F7C5" d="m392 137 13 1 3 2h-16l-3 1v-2z"></path><path fill="#10D50C" d="m280 130 3 1v2h2l-1 5-2 4h-2z"></path><path fill="#D0F7C2" d="m107 86 7 4h10l-3 3h-8l-5-3z"></path><path fill="#9BF083" d="m219 423 9 5 4 4-6-1-7-5z"></path><path fill="#0EDB0D" d="m399 372 2 1-4 4h-2l-2 4-5 4h-2l2-4z"></path><path fill="#0EC717" d="M470 248h1l-1 12-2 6h-2l3-16z"></path><path fill="#008506" d="m389 219 3 1h11l1-1h5l-4 3-5 1h-8l-3-2z"></path><path fill="#05C40C" d="m279 138 2 4-2 5-5 5v-3z"></path><path fill="#038E07" d="m209 68 3 1h-2v2l5 1 4 2-10-1-6-1v-2z"></path><path fill="#030D04" d="m187 68 3 1-14 6-10 1-3-3h12z"></path><path fill="#D1F7C4" d="M202 32h6l-4 2-14 5h-2v-2z"></path><path fill="#CCF7BE" d="m297 28 9 1 10 3v2l-7-1-12-4z"></path><path fill="#02BE0D" d="m344 246 4 1-1 4-3 6-2-3 1-6z"></path><path fill="#021B04" d="m408 189 4 2 3 3 1 5-4-1-4-6z"></path><path fill="#00AF0B" d="m149 160 6 1 4 3-2 2-9-2z"></path><path fill="#009409" d="m385 69 5 2 4 4-19-1v-1l9-1 2-1z"></path><path fill="#019909" d="m374 60 5 2 4 2-2 4-9-5 2-2z"></path><path fill="#01C80F" d="M227 433h3v2l8 1 4 1v2l2 1-7-1-10-4z"></path><path fill="#008306" d="m306 367 2 1 3 14h-2l-3-5-1-8z"></path><path fill="#10DD0D" d="M257 255h1v14l2 1-5-1v-11h2z"></path><path fill="#E7FADE" d="m182 237 5 5 5 6-1 2-8-7z"></path><path fill="#00920A" d="m328 226 5 1v7h-1l-1-5-6 1-6 3-2-1 8-5z"></path><path fill="#008506" d="m321 178 4 4 6 14-1 3-3-4-3-9-3-6z"></path><path fill="#009F0A" d="m151 112 2 1-6 4-3 4v2l2 1-2 2h-3l1-6 4-5z"></path><path fill="#00910A" d="m319 420 3 3 2-1-2 4-7 3 1-5z"></path><path fill="#030D04" d="m327 381 3 4 3 14h-3l-3-15z"></path><path fill="#00930B" d="m92 321 3 1 9 13-1 2-9-11z"></path><path fill="#009109" d="m195 312 1 2-1 3 2 1-3 3-4 1 1-7z"></path><path fill="#01A30A" d="m112 309 4 4 7 8-1 2-4-4h-3l-2-4z"></path><path fill="#55D50D" d="m417 159 6 1 7 5-4 1-9-6z"></path><path fill="#9BF083" d="m418 152 2 3 5 6-8-2v-2l-3-1v-2z"></path><path fill="#008307" d="m353 113 8 1 4 1v2l-8-1h-7z"></path><path fill="#34C622" d="m455 76 1 3-5 10-4 2-3 3-2-1 9-9z"></path><path fill="#009709" d="m314 56 4 2 2 4-2 1-9-2 3-1v-2h2z"></path><path fill="#00B90D" d="m239 49 5 1v2l-12 2h-10v-1l13-2z"></path><path fill="#00920A" d="M301 427h4l-1 5-2 4h-2v-6l-2-2z"></path><path fill="#01AA0A" d="m102 344 4 1-2 1 4 6 1 2-3 1-6-8h2z"></path><path fill="#1AE70D" d="m418 247 4 1-2 4-6 1v-4z"></path><path fill="#9BF083" d="m381 59 4 2 7 5v3l-5-2-4-3v-2z"></path><path fill="#00B50D" d="m218 48 2 1-2 4 4 2-5 2h-4l1-4z"></path><path fill="#008907" d="M196 36h4v2l-13 5 2-4z"></path><path fill="#25BC0C" d="m196 305 1 2h2l-2 5-6 4-2-1 6-8z"></path><path fill="#02C40D" d="m89 294 3 1 6 12v2h-2l-7-14z"></path><path fill="#01C70F" d="m383 182 5 1 1 2v6l-1 1h-6v-3l6 1-1-4-4-2z"></path><path fill="#07B50B" d="m413 154 4 3 2 4 4 4h-3l-5-4-3-4z"></path><path fill="#013A05" d="M77 139h2l-1 5-3 6-4 2 2-5z"></path><path fill="#00C410" d="M339 119h7v2l-7 3h-4v-2z"></path><path fill="#023204" d="m288 108 4 1 1 8h-3l-1 4z"></path><path fill="#16CF0E" d="m139 73 4 1h-2v2l-4 2-1 2-6-1 4-1 1-3z"></path><path fill="#05B010" d="M292 408h3v4l-6 3-1-2-3-1z"></path><path fill="#04CD0E" d="M161 258h3l1 3 2 2-7 3z"></path><path fill="#00A70A" d="m345 197 4 2h-2l-1 5-2 2-2-2 1-4z"></path><path fill="#00A009" d="M179 170h15l-4 3h-7v-2z"></path><path fill="#00930A" d="m195 152 3 4v2l6 1-1 2-7-1-1-3-2-2z"></path><path fill="#008C08" d="M284 148h2l5 6 4 4h-3l-9-7z"></path><path fill="#D0F7C2" d="m408 140 5 2 5 5-1 4-3 1 1-5-5-4-2-1z"></path><path fill="#05C80C" d="M249 135h1v6l-3 3h-3l-2-7 2 1v3h3z"></path><path fill="#009007" d="m222 102 9 1v2l3 1-4 1-3 1-1-3z"></path><path fill="#022B04" d="m376 93 1 2 3 1-5 3v2h-2l-1-3-3-3z"></path><path fill="#01AB0A" d="M311 94h7l-4 4 1 2h-6l2-3-3-2z"></path><path fill="#014205" d="m204 72 10 1-2 3-16-2v-1z"></path><path fill="#012C03" d="m313 63 9 2v4l-9-3-3-2z"></path><path fill="#01AA0A" d="m318 53 6 1 3 2v3l-5-1-4-3z"></path><path fill="#6CDA0D" d="M299 49h7l6 5-1 2-12-6z"></path><path fill="#08C110" d="m88 343 4 2 6 8-1 3-9-11z"></path><path fill="#01A60A" d="m391 338 2 1-8 9-4-1z"></path><path fill="#09D70D" d="m439 296 1 2-4 8-3 1 2-5 3-5z"></path><path fill="#01C80F" d="m340 236 1 2 4-1 2 1v5l-1-3-7 1-2-3z"></path><path fill="#13E00D" d="M257 209h2l2 7 4 2-1 2-4-1-3-3z"></path><path fill="#00930B" d="M378 177h5l-1 2-9 2v5l-2-1v-5z"></path><path fill="#9BF083" d="m382 113 3 3 2 4v5l-3-1v-2l-3-1 3-1z"></path><path fill="#008907" d="m309 387 4 4 4 8v4h-2l-4-11z"></path><path fill="#41DD0D" d="m193 344 5 5 7 5-3 1-4-2-5-5z"></path><path fill="#00C00F" d="m167 313 2 1 9 1-3 4h-2v-3l-3 1-2 2-1-1z"></path><path fill="#010501" d="m113 304 2 3 5 7-1 2-5-4-2-3z"></path><path fill="#75DE25" d="m196 295 1 3h3l-1 5-2 2-1-3h-2l1-5z"></path><path fill="#00AE0C" d="m114 221 6 2 8 5-1 2-12-7z"></path><path fill="#05C80F" d="m157 221 2 2-5 6-3 1-1 2h-2l2-4 5-6z"></path><path fill="#008306" d="M418 212h1v8l-4 6-2-1 2-4 2-6z"></path><path fill="#01B00C" d="m347 208 4 1 5 5 4 5-4-1-9-9z"></path><path fill="#02A80A" d="m311 205 6 2v1h-21l3-2z"></path><path fill="#008807" d="m147 191 2 1-3 3-14 1 1-4 1 2 12-2z"></path><path fill="#06D30E" d="m32 188 12 1-2 2H31z"></path><path fill="#68D90D" d="M301 97v3l-11 6v-3l5-3z"></path><path fill="#008907" d="m241 82 4 2 3 3h3l-6 5-3-8z"></path><path fill="#00930A" d="m317 384 5 2 1 8-4-3z"></path><path fill="#02C40E" d="m450 310 1 2-3 8-5 3 2-5z"></path><path fill="#014805" d="m301 220 3 1v2l4 1-5 2-3-1-1-3z"></path><path fill="#04CE0E" d="M143 207h2l-1 4-2 1h-9l1-3h9z"></path><path fill="#00910A" d="m341 194 5 2-4 7-2-2z"></path><path fill="#01C40F" d="m187 162 1 2 5-1v2l-6 2h-5v-2z"></path><path fill="#021904" d="M67 162h4v3l4-1v3h-8z"></path><path fill="#01B20D" d="m156 117 2 1-2 3-10 2 2-1v-2z"></path><path fill="#009909" d="m391 83 3 1-4 2h-3v2l-6 1v-2l7-3z"></path><path fill="#B8F4A6" d="M175 82v3l-3 6-3 1-1-3z"></path><path fill="#05AB10" d="m392 67 5 4 1 6-4-2v-2l-3-2z"></path><path fill="#0CBB15" d="M136 67h2v2l-11 4-4 1 1-3z"></path><path fill="#04CE0E" d="m395 345 2 1-4 5-6 5-2-1 5-5z"></path><path fill="#14D01B" d="m82 334 3 1 5 7-1 2h-2l-5-7z"></path><path fill="#030D04" d="m209 280 2 4v8l-3 4z"></path><path fill="#08C60D" d="m458 273 1 4-4 13h-1v-7z"></path><path fill="#00A00A" d="M137 270h2l2 10h-3v-4h-2z"></path><path fill="#03C30D" d="m380 233 7 6 2 2 1 7-3-4-4-6-3-3z"></path><path fill="#008607" d="M439 239h1v12l-3 1v-7z"></path><path fill="#07C80D" d="m208 221 3 1 4 4 2 1v3h-4z"></path><path fill="#00B50C" d="M495 182h7l-1 2-7 1-10-1v-1z"></path><path fill="#021A04" d="M155 139v6l-9 1 3-1v-3z"></path><path fill="#00BA0D" d="m357 115 3 1-1 3-14-2v-1z"></path><path fill="#01AA0A" d="M415 115h3v2l-8 4-4-1z"></path><path fill="#09D70D" d="M256 102h2v3l-2 2-2 4-3 4 1-6 3-6z"></path><path fill="#00B00C" d="m165 91 1 3 7-1-2 1v2l-8 1z"></path><path fill="#021E04" d="M366 72h7l-3 2h-3v2l-6 2 2-5z"></path><path fill="#020C03" d="m216 47 2 2-8 6-3-2 6-4z"></path><path fill="#01A90A" d="m219 40 3 1-7 6h-6v-2l7-3z"></path><path fill="#25E40D" d="m279 40 6 5-2 2-3-3-4 1-1-3z"></path><path fill="#009109" d="M327 410h2v7l-4 4 1-7v-3z"></path><path fill="#0FCD17" d="m123 380 5 2 6 5-2 2-9-8z"></path><path fill="#08CF0E" d="m197 351 5 3 6 2-2 2-5-1-4-3z"></path><path fill="#00A10A" d="m194 348 3 2 2 5 3 4-1 2-3-3-4-6z"></path><path fill="#07D30E" d="M419 348v3l-8 8-2-2z"></path><path fill="#01BC0D" d="m116 334 7 6 4 5-5-2-6-7z"></path><path fill="#07D50E" d="m408 333 2 1-12 11v-3z"></path><path fill="#10C60F" d="M354 318h5v10l-2-1z"></path><path fill="#FCFEFB" d="m189 290 1 2-6 9h-2l2-6z"></path><path fill="#75E02C" d="M255 289h7v3l-5 1-3-1z"></path><path fill="#009E0B" d="M207 281h1v14l-2 2-1-4 1-5z"></path><path fill="#00C00F" d="m270 206 2 3 1 5-3 5-4 1 4-7z"></path><path fill="#04AC0A" d="m225 208 9 1 4 1 1 3-5-1-9-3z"></path><path fill="#009007" d="M152 207h2l-1 4-5 4-2-1 4-6z"></path><path fill="#00A30A" d="M51 204h3l1 7-2-1-1 6h-1z"></path><path fill="#01AF0A" d="m461 179 7 2 1 2-10 1 2-4z"></path><path fill="#00BD0E" d="m250 140 1 4-2 4h-3l-1-4z"></path><path fill="#00A20A" d="m357 123 10 3 1 2-7-1-9-2v-1z"></path><path fill="#3CD43B" d="m179 120 10 3 3 3-7-1-6-4z"></path><path fill="#0CCB0D" d="m348 91 7 2 6 2-3 1-8-1v-2l-3-1z"></path><path fill="#FBFEF9" d="M452 59h2v2l-11 7v-3z"></path></svg> 